<svg xmlns="http://www.w3.org/2000/svg" xmlns:xlink="http://www.w3.org/1999/xlink" width="170.001" height="170.002" viewBox="0 0 170.001 170.002"><defs><style>.a{fill:none;}.b{clip-path:url(#a);}.c{clip-path:url(#b);}.d{fill:#f193eb;}.e{fill:#7e25e7;}.f{fill:#28e85e;}.g{fill:#fff;}</style><clipPath id="a"><circle class="a" cx="83.569" cy="83.569" r="83.569" transform="translate(1162.105 129.453)"/></clipPath><clipPath id="b"><path class="a" d="M1212.1,263.106c.935-8.486,8.667-25.552,8.667-25.552a33.909,33.909,0,0,1-7.828-.467c2.794-2.336,5.778-11.289,5.778-11.289a23.576,23.576,0,0,1-6.34,3.452c1.478-1.4,2.917-11.7,2.917-11.7s-11.777-6.394-15.757-17.586c10.819-5.6,11.352-19.959,11.352-19.959-5.263-9.946-3.714-22.26-2.728-27.379a1.4,1.4,0,0,1,2.32-.767l21.384,19.651a73.654,73.654,0,0,1,21.166-.324l21.03-19.326a1.4,1.4,0,0,1,2.318.759c.938,4.878,2.39,16.311-2.039,25.984,0,0,3.087,14.769,14.591,18-.56,12.063-13.733,17.5-13.733,17.5,1.373,2.545,4.052,6.492,7.78,7.246-2.861.867-5.721,2.984-9.077,2.24,7.866,3.985,10.078,2.574,10.192,2.5-.238.238-4.081,4.014-7.208,5.454,1.621,2.24,23.325,52.115,24.565,65.044l-96.628,3.357S1211.166,271.591,1212.1,263.106Z"/></clipPath></defs><g transform="translate(-1160.674 -128.021)"><g class="b"><circle cx="83.569" cy="83.569" r="83.569" transform="translate(1162.105 129.453)"/><g class="c"><path class="d" d="M1212.1,263.106c.935-8.486,8.667-25.552,8.667-25.552a33.909,33.909,0,0,1-7.828-.467c2.794-2.336,5.778-11.289,5.778-11.289a23.576,23.576,0,0,1-6.34,3.452c1.478-1.4,2.917-11.7,2.917-11.7s-11.777-6.394-15.757-17.586c10.819-5.6,11.352-19.959,11.352-19.959-5.263-9.946-3.714-22.26-2.728-27.379a1.4,1.4,0,0,1,2.32-.767l21.384,19.651a73.654,73.654,0,0,1,21.166-.324l21.03-19.326a1.4,1.4,0,0,1,2.318.759c.938,4.878,2.39,16.311-2.039,25.984,0,0,3.087,14.769,14.591,18-.56,12.063-13.733,17.5-13.733,17.5,1.373,2.545,4.052,6.492,7.78,7.246-2.861.867-5.721,2.984-9.077,2.24,7.866,3.985,10.078,2.574,10.192,2.5-.238.238-4.081,4.014-7.208,5.454,1.621,2.24,23.325,52.115,24.565,65.044l-96.628,3.357S1211.166,271.591,1212.1,263.106Z"/><path class="e" d="M1241.371,185.484a19.209,19.209,0,0,0-9.14-7.222.612.612,0,0,1,.01-1.154,6.805,6.805,0,0,1,2.788-.194,17.641,17.641,0,0,1,4.207,1.266c1.6.632,2.706.873,4.307,1.505-.451-2.032-2.121-2.737-4.069-3.471a25.8,25.8,0,0,0-6.973-1.79,12.039,12.039,0,0,0-5.348.709.615.615,0,0,0,.063,1.172,22.5,22.5,0,0,1,2.469.8c-2.017-.786-5.242.932-6.574,2.734a.617.617,0,0,0,.408.955c2.275.42,4.765-.2,7.266.739a55.1,55.1,0,0,1,9.75,4.812A.614.614,0,0,0,1241.371,185.484Z"/><path class="e" d="M1246.8,185.484a19.218,19.218,0,0,1,9.14-7.222.611.611,0,0,0-.009-1.154,6.8,6.8,0,0,0-2.788-.194,17.64,17.64,0,0,0-4.207,1.266c-1.6.632-2.908,1-4.509,1.635.452-2.032,2.323-2.867,4.271-3.6a25.8,25.8,0,0,1,6.973-1.79,12.039,12.039,0,0,1,5.348.709.615.615,0,0,1-.063,1.172,22.428,22.428,0,0,0-2.469.8c2.017-.786,5.242.932,6.574,2.734a.617.617,0,0,1-.408.955c-2.275.42-4.765-.2-7.266.739a55.1,55.1,0,0,0-9.75,4.812A.615.615,0,0,1,1246.8,185.484Z"/><path class="e" d="M1197.707,201.636a31.918,31.918,0,0,0,14.811-5.415.377.377,0,0,1,.558.468c-1.475,2.9-4.285,4.741-6.4,7.165a1.194,1.194,0,0,0-.385.837c.041.539.644.718,1.111.706,4.054-.1,7.253-3.856,11-5.683a.265.265,0,0,1,.378.222c.046,1.389-2.508,3.675-3.406,4.564-2.189,2.166-3.035,3.509-4.809,5.42a.64.64,0,0,0,.512,1.071,23.129,23.129,0,0,0,9.084-2.517c.594.394.1,1.442-.425,1.951a43.314,43.314,0,0,1-10.013,7.262,4.781,4.781,0,0,1-2.194.7c-1.492-.017-2.705-1.36-3.639-2.708a29.7,29.7,0,0,1-3.324-6.348"/><path class="e" d="M1291.059,199.777a31.918,31.918,0,0,1-14.811-5.415.377.377,0,0,0-.558.469c1.475,2.9,4.284,4.741,6.4,7.164a1.2,1.2,0,0,1,.385.838c-.042.539-.644.717-1.111.705-4.054-.1-7.253-3.855-11-5.682a.264.264,0,0,0-.377.222c-.047,1.388,2.507,3.674,3.406,4.563,2.189,2.166,3.035,3.509,4.809,5.42a.64.64,0,0,1-.513,1.071,23.129,23.129,0,0,1-9.083-2.517c-.595.394-.1,1.442.425,1.951a43.282,43.282,0,0,0,10.013,7.262,4.777,4.777,0,0,0,2.194.7c1.491-.017,2.705-1.36,3.638-2.707a29.642,29.642,0,0,0,3.324-6.349"/><path class="e" d="M1234.435,236.147l4.927.819a.921.921,0,0,0,.732-1.621c-3.362-2.851-8.06-4.075-12.495-4.92-1.621-.308-21.548-2.618-18.345,2.529.813,1.307,9.957.952,11.748,1.167C1225.5,234.662,1229.968,235.4,1234.435,236.147Z"/><path class="e" d="M1233.13,245.538l4.928.819a.921.921,0,0,0,.732-1.62c-3.362-2.852-8.061-4.076-12.5-4.92-1.62-.309-21.547-2.619-18.344,2.529.813,1.306,9.956.951,11.748,1.167C1224.194,244.054,1228.664,244.8,1233.13,245.538Z"/><path class="e" d="M1261.134,236.147l-4.927.819a.921.921,0,0,1-.732-1.621c3.362-2.851,8.06-4.075,12.495-4.92,1.62-.308,21.547-2.618,18.345,2.529-.813,1.307-9.957.952-11.748,1.167C1270.07,234.662,1265.6,235.4,1261.134,236.147Z"/><path class="e" d="M1262.438,245.538l-4.927.819a.921.921,0,0,1-.732-1.62c3.362-2.852,8.061-4.076,12.495-4.92,1.621-.309,21.548-2.619,18.345,2.529-.813,1.306-9.957.951-11.748,1.167C1271.375,244.054,1266.905,244.8,1262.438,245.538Z"/><path class="e" d="M1207.325,188.081a11.72,11.72,0,0,1,7.583-3.432,18.2,18.2,0,0,1,8.3,1.483,3.266,3.266,0,0,0,2.671.323,18.084,18.084,0,0,0-17.691-4.014"/><path class="e" d="M1278.905,188.081a11.72,11.72,0,0,0-7.583-3.432,18.2,18.2,0,0,0-8.3,1.483,3.266,3.266,0,0,1-2.671.323,18.084,18.084,0,0,1,17.691-4.014"/></g><path d="M1284.438,226.423l-.691-.657.7.648Z"/><path class="e" d="M1244.7,212.958l3.589-4.881a.522.522,0,0,0-.421-.831h-7.177a.522.522,0,0,0-.421.831l3.589,4.881A.522.522,0,0,0,1244.7,212.958Z"/><path class="e" d="M1238.612,220.739a5.6,5.6,0,0,1-2.5-.586l-2.626-1.308.425-.854,2.625,1.309a4.7,4.7,0,0,0,4.963-.5l1.54-1.2a1.625,1.625,0,0,1,2.074.058l.412.359a5.834,5.834,0,0,0,6.683.7l1.778-.995.465.831-1.777,1a6.792,6.792,0,0,1-7.777-.812l-.411-.359a.675.675,0,0,0-.86-.024l-1.54,1.2A5.646,5.646,0,0,1,1238.612,220.739Z"/><rect class="e" width="0.953" height="6.845" transform="translate(1222.661 213.284) rotate(-70.082)"/><rect class="e" width="6.261" height="0.953" transform="matrix(0.998, -0.06, 0.06, 0.998, 1222.701, 218.236)"/><rect class="e" width="5.588" height="0.954" transform="matrix(0.835, -0.551, 0.551, 0.835, 1224.892, 224.189)"/><rect class="e" width="6.845" height="0.953" transform="translate(1260.45 214.716) rotate(-19.868)"/><rect class="e" width="0.953" height="6.261" transform="matrix(0.06, -0.998, 0.998, 0.06, 1260.863, 218.815)"/><rect class="e" width="0.954" height="5.587" transform="translate(1259.79 221.908) rotate(-56.573)"/><path class="f" d="M1215.455,247.718s13.928,11.566,31.214,9.2,35.159-17.891,35.159-17.891l1.368,2.611s-8.67,28.586-36.9,48.981c-10.2-6.839-31.711-41.038-31.711-41.038Z"/><path class="e" d="M1222.284,195.558a7.674,7.674,0,0,1-1.877-3.982,2.993,2.993,0,0,0,1.911,1.079,13.023,13.023,0,0,0,1.777-.021,2.286,2.286,0,0,1,1.649.532,3.582,3.582,0,0,1-1.717-3.237,13.178,13.178,0,0,0,5.29,3.718"/><path class="g" d="M1234.8,204.141s.457.261,1.076-.978.229-2.609.2-3.391-1.337-4.468-3.554-5.12-4.826-2.348-8.8.065-.228,6.913.326,7.305a20.366,20.366,0,0,0,6.457,2.217A21.059,21.059,0,0,0,1234.8,204.141Z"/><path class="e" d="M1233.231,204.759a20.39,20.39,0,0,1-7.148-1.271,6.935,6.935,0,0,1-4.357-4.163,4.7,4.7,0,0,1,.011-3.611c.816-1.4,4.669-3.982,9.359-2.067,4.658,1.9,5.494,5.086,5.705,8.244l-.952.064c-.177-2.655-.732-5.637-5.113-7.425-4.366-1.782-7.677.808-8.176,1.664a3.9,3.9,0,0,0,.065,2.813,6.011,6.011,0,0,0,3.8,3.59,19.57,19.57,0,0,0,8.808,1.093l.14.943A15.845,15.845,0,0,1,1233.231,204.759Z"/><ellipse class="e" cx="3.917" cy="4.011" rx="3.917" ry="4.011" transform="translate(1225.879 194.182)"/><path class="e" d="M1265.837,195.558a7.682,7.682,0,0,0,1.877-3.982,3,3,0,0,1-1.912,1.079,13.025,13.025,0,0,1-1.777-.021,2.282,2.282,0,0,0-1.648.532,3.582,3.582,0,0,0,1.717-3.237,13.174,13.174,0,0,1-5.291,3.718"/><path class="g" d="M1253.316,204.141s-.456.261-1.076-.978-.228-2.609-.195-3.391,1.337-4.468,3.554-5.12,4.826-2.348,8.8.065.229,6.913-.326,7.305a20.359,20.359,0,0,1-6.456,2.217A21.071,21.071,0,0,1,1253.316,204.141Z"/><path class="e" d="M1254.89,204.759a20.385,20.385,0,0,0,7.147-1.271,6.934,6.934,0,0,0,4.358-4.163,4.7,4.7,0,0,0-.011-3.611c-.816-1.4-4.67-3.982-9.359-2.067-4.659,1.9-5.495,5.086-5.705,8.244l.951.064c.177-2.655.732-5.637,5.114-7.425,4.366-1.782,7.677.808,8.176,1.664a3.9,3.9,0,0,1-.065,2.813,6.011,6.011,0,0,1-3.8,3.59,19.571,19.571,0,0,1-8.808,1.093l-.14.943A15.831,15.831,0,0,0,1254.89,204.759Z"/><ellipse class="e" cx="3.917" cy="4.011" rx="3.917" ry="4.011" transform="translate(1254.407 194.182)"/><path class="e" d="M1251.942,189.983l-.6-.742c.122-.1,3.011-2.413,5.158-2.8l.171.937C1254.765,187.723,1251.97,189.96,1251.942,189.983Z"/><path class="e" d="M1237.727,190.936c-.028-.022-2.822-2.26-4.729-2.607l.171-.938c2.146.391,5.035,2.7,5.156,2.8Z"/><path class="d" d="M1183.046,289.027s26.115-49.619,35.069-50.987,19.152.5,21.514,3.358.622,7.088-4.228,9.575-12.56,1.617-12.56,1.617l-15.856,42.842Z"/><path class="e" d="M1206.985,295.908a.47.47,0,0,1-.123-.016l-23.939-6.4a.477.477,0,0,1-.3-.683c1.071-2.035,26.332-49.848,35.419-51.236,8.687-1.329,19.36.385,21.954,3.525a4.88,4.88,0,0,1,1.043,4.222c-.483,2.346-2.459,4.563-5.421,6.081-4.366,2.239-10.83,1.845-12.459,1.7l-15.728,42.5A.477.477,0,0,1,1206.985,295.908Zm-23.239-7.187,22.943,6.138,15.705-42.434a.481.481,0,0,1,.5-.309c.076.009,7.627.825,12.289-1.567,2.7-1.386,4.5-3.364,4.923-5.426a3.953,3.953,0,0,0-.845-3.422c-2.128-2.577-12-4.573-21.074-3.19C1211.364,239.554,1192.845,271.5,1183.746,288.721Z"/><path class="e" d="M1223.216,253.1a8.178,8.178,0,0,1-4.129-1.056l.511-.8a7.518,7.518,0,0,0,3.77.9l.019.954Z"/><path class="e" d="M1237.232,249.637c-1.468-3.439-9.06-2.2-9.136-2.188l-.158-.941c.341-.058,8.411-1.368,10.171,2.755Z"/><path class="e" d="M1239.8,245.156c-1.041-2.5-7.058-2.755-9.282-2.645l-.048-.952c.354-.017,8.7-.4,10.211,3.23Z"/><path class="e" d="M1225.543,172.773l-12.652-11.112s.14,10.691,3.034,15.36C1217.933,175.2,1225.543,172.773,1225.543,172.773Z"/><path class="e" d="M1258.406,172.773l12.653-11.112s-.14,10.691-3.035,15.36C1266.016,175.2,1258.406,172.773,1258.406,172.773Z"/><path class="f" d="M1280.738,239.973s3.6-6.716,10.878-5.826,10.739,4.645,10.739,4.645a59.51,59.51,0,0,1-13.979,2.842C1281.012,242.135,1280.738,239.973,1280.738,239.973Z"/><path class="f" d="M1281.31,241.615c.068.074,5.829-1.78,10.726,1.207,5.539,3.378,6.875,6.334,6.875,6.334a52.632,52.632,0,0,1-12.2-3.229C1280.679,243.437,1281.31,241.615,1281.31,241.615Z"/><path class="e" d="M1260.974,265.7l-.448-.841c6.776-3.606,12.156-11.068,14.89-15.443-1.274,1.235-3,2.811-5.2,4.621-5.364,4.412-15.632,6.875-16.066,6.978l-.22-.927c.1-.025,10.488-2.517,15.681-6.787a65.983,65.983,0,0,0,7.836-7.376.476.476,0,0,1,.79.522C1277.95,247.006,1271.12,260.3,1260.974,265.7Z"/><circle class="a" cx="83.569" cy="83.569" r="83.569" transform="translate(1162.105 129.453)"/></g><path class="e" d="M1245.741,298.023q-1.341,0-2.686-.041a84.944,84.944,0,1,1,2.686.041Zm-.131-167.141a82.14,82.14,0,1,0,82.164,84.672h0a82.139,82.139,0,0,0-79.567-84.632C1247.341,130.9,1246.472,130.882,1245.61,130.882Z"/></g></svg>