<svg xmlns="http://www.w3.org/2000/svg" xmlns:xlink="http://www.w3.org/1999/xlink" width="170" height="170.01" viewBox="0 0 170 170.01"><defs><style>.a{fill:none;}.b{clip-path:url(#a);}.c{fill:#f9e2a7;}.d{fill:#7e25e7;}.e{fill:#28e85e;}.f{clip-path:url(#b);}.g{clip-path:url(#c);}.h{fill:#fff;}</style><clipPath id="a"><path class="a" d="M1464.021,127.881a83.575,83.575,0,1,0,83.57,83.57A83.567,83.567,0,0,0,1464.021,127.881Z"/></clipPath><clipPath id="b"><path class="a" d="M1478.446,201.63s-.373,27.049,10.819,49.248,27.236,39.547,27.236,39.547-27.422,19.587-36.376,19.96a22.089,22.089,0,0,1-14.924-5.223s-14.924-49.248-6.9-89.728C1474.9,201.63,1478.446,201.63,1478.446,201.63Z"/></clipPath><clipPath id="c"><path class="a" d="M1482.051,186.213c-.372-3.737-9.945-14.053-20.891-15.055-10.135-.915-16,1.469-25.1,10.107a6.7,6.7,0,0,0-2.088,5.234c.315,5.3.791,12.386,1.039,16.009a4.565,4.565,0,0,1-.229,1.764,4.627,4.627,0,0,1-1.392,2.05c-3.184,2.707-9.505,8.495-9.038,11.479.619,3.976,5.1,10.688,11.441,12.681s12.433,1.24,14.922-1.5c.829-.906,1.983-2.45,3.346-4.205,2.775-3.527,6.426-7.885,10.088-9.467,5.472-2.365,11.441-3.738,13.93-8.457S1482.422,189.941,1482.051,186.213Z"/></clipPath></defs><g transform="translate(-1379.021 -126.451)"><g class="b"><path d="M1464.021,127.881a83.575,83.575,0,1,0,83.57,83.57A83.567,83.567,0,0,0,1464.021,127.881Z"/><path class="c" d="M1445.614,179.322c-.332,0-1.883-.443-3.876-2.768s-5.98-13.067-13.51-14.728-19.6,2.1-19.6,2.1,10.41,24.916,19.269,24.694,13.067-2.99,15.946-2.658"/><path class="d" d="M1427.781,189.1c-9.05,0-19.165-23.963-19.593-24.988l-.2-.483.5-.156c.5-.155,12.276-3.783,19.845-2.115,5.912,1.3,9.722,8.021,12,12.033a22.513,22.513,0,0,0,1.77,2.851c1.819,2.122,3.237,2.592,3.516,2.6l0,.954c-.6,0-2.249-.613-4.238-2.935a22.105,22.105,0,0,1-1.876-3c-2.34-4.126-5.877-10.36-11.374-11.573-6.456-1.421-16.488,1.264-18.848,1.944,1.5,3.448,10.753,23.914,18.5,23.914l.109,0a43.117,43.117,0,0,0,11.317-1.853,13.249,13.249,0,0,1,4.7-.8l-.11.947a12.569,12.569,0,0,0-4.331.772,43.909,43.909,0,0,1-11.548,1.889Z"/><path class="c" d="M1411.839,165.812s10.741-1.993,17.607,2.1,7.641,10.188,10.852,11.849a25.1,25.1,0,0,0,4.541,1.993"/><path class="d" d="M1444.723,182.221a25.313,25.313,0,0,1-4.643-2.032c-1.45-.75-2.418-2.29-3.538-4.073a21.258,21.258,0,0,0-7.34-7.79c-6.636-3.959-17.17-2.065-17.276-2.045l-.173-.938c.445-.083,11-1.979,17.937,2.164a22.087,22.087,0,0,1,7.66,8.1c1.089,1.734,1.948,3.1,3.167,3.734a25.462,25.462,0,0,0,4.438,1.954Z"/><path class="e" d="M1452.749,252.821c.093-.14.435-3.358,5.612-6.949-1.026,7.415-1.632,8.348-1.632,8.348Z"/><g class="f"><path class="c" d="M1478.446,201.63s-.373,27.049,10.819,49.248,27.236,39.547,27.236,39.547-27.422,19.587-36.376,19.96a22.089,22.089,0,0,1-14.924-5.223s-14.924-49.248-6.9-89.728C1474.9,201.63,1478.446,201.63,1478.446,201.63Z"/><path class="d" d="M1476.464,240.969a4.378,4.378,0,0,1-4.21-3.189l-3.641-12.933a4.347,4.347,0,0,1,.675-3.761l11.943-16.379.771.562-11.943,16.378a3.4,3.4,0,0,0-.528,2.942l3.641,12.933a3.419,3.419,0,0,0,4.769,2.157l9.066-4.342.412.861-9.066,4.341A4.364,4.364,0,0,1,1476.464,240.969Z"/><path class="d" d="M1464.539,243.281c-.11,0-.221,0-.332-.011-4.491-.313-10.212-.761-11.975-1.129l.194-.933c1.354.282,5.451.666,11.846,1.11a3.663,3.663,0,0,0,3.794-4.588l-2.979-11.317a3.677,3.677,0,0,0-2.2-2.476l-7.5-2.961.35-.886,7.5,2.961a4.636,4.636,0,0,1,2.77,3.12l2.978,11.317a4.616,4.616,0,0,1-4.448,5.793Z"/><path class="d" d="M1498.059,278.7a2.546,2.546,0,0,1-1-.206l-14.531-6.2a2.548,2.548,0,0,1-1.363-1.383l-4.125-10.047a2.573,2.573,0,0,1,.185-2.309l8.9-14.52.813.5-8.9,14.519a1.61,1.61,0,0,0-.117,1.449l4.125,10.047a1.593,1.593,0,0,0,.855.867l14.531,6.2a1.609,1.609,0,0,0,1.97-.592l3.644-5.515.8.526-3.645,5.515A2.562,2.562,0,0,1,1498.059,278.7Z"/><path class="d" d="M1467.737,287.128a2.548,2.548,0,0,1-1.114-.256l-10.685-5.19a2.564,2.564,0,0,1-1.34-1.589l-2.822-9.733a2.55,2.55,0,0,1,1.509-3.09l17.22-6.867a2.55,2.55,0,0,1,3.29,1.342h0c1.271,2.884,3.78,8.257,4.8,10.433a2.55,2.55,0,0,1-.277,2.623l-8.534,11.311A2.567,2.567,0,0,1,1467.737,287.128Zm3.721-25.955a1.626,1.626,0,0,0-.6.115l-17.219,6.868a1.6,1.6,0,0,0-.947,1.939l2.822,9.733a1.606,1.606,0,0,0,.841,1l10.686,5.189a1.608,1.608,0,0,0,1.982-.477l8.534-11.31a1.594,1.594,0,0,0,.174-1.644c-1.021-2.179-3.534-7.56-4.809-10.453h0A1.6,1.6,0,0,0,1471.458,261.173Z"/><path class="d" d="M1477.63,300.716a2.575,2.575,0,0,1-2.366-1.56l-3.253-7.683a2.562,2.562,0,0,1,.317-2.546l8.576-11.3a2.561,2.561,0,0,1,2.824-.888l12.635,4.073a2.565,2.565,0,0,1,1.645,1.635l2.628,7.973a2.565,2.565,0,0,1-1.614,3.226l-20.585,6.932A2.514,2.514,0,0,1,1477.63,300.716Zm4.034-22.507-8.576,11.295a1.608,1.608,0,0,0-.2,1.6l3.253,7.683a1.615,1.615,0,0,0,1.993.895l20.585-6.931a1.611,1.611,0,0,0,1.012-2.025l-2.628-7.973a1.613,1.613,0,0,0-1.033-1.026l-12.635-4.072a1.606,1.606,0,0,0-1.771.557Z"/><path class="d" d="M1454.941,226.751a62.379,62.379,0,0,0,13.991-13.369c-6.032,1.244-6.405,1.244-6.405,1.244l-7.089,4.166"/></g><path class="d" d="M1457.646,171.316a31.053,31.053,0,0,1-4.695-10.667,2.287,2.287,0,0,0-2.562-1.822c-.554.074-1.041.159-1.47.251a2.983,2.983,0,0,0-2.183,3.876,19.429,19.429,0,0,1-.1,11.44A84.7,84.7,0,0,1,1457.646,171.316Z"/><path class="d" d="M1463.41,172.34a31.055,31.055,0,0,0,7.159-9.2A2.287,2.287,0,0,1,1473.5,162c.519.208.971.41,1.364.6a2.982,2.982,0,0,1,1.17,4.291,19.433,19.433,0,0,0-2.7,11.117A84.748,84.748,0,0,0,1463.41,172.34Z"/><path class="e" d="M1487.9,240.058c-2.363,20.955-40.169,50.305-40.169,50.305s1.492-21.919,5.037-37.589c16.975-2.425,32.832-15.576,32.832-15.576Z"/><path class="e" d="M1485.414,238.869s-.8-5.614,2.865-9.326,7.978-2.9,11.366-5.318c-.408,3.522-4.414,8.748-5.973,10.058S1485.414,238.869,1485.414,238.869Z"/><path class="e" d="M1484.671,239.22s2.638-3.356,6.563-3.295,5.728,2.832,8.808,3.414c-2.128,1.611-7.056,2.152-8.579,1.986A56.206,56.206,0,0,1,1484.671,239.22Z"/><g class="g"><path class="h" d="M1454.057,224.78c-1.363,1.755-2.517,3.3-3.346,4.205-2.489,2.737-8.581,3.49-14.922,1.5s-10.822-8.705-11.441-12.681c-.467-2.984,5.854-8.772,9.038-11.479a4.627,4.627,0,0,0,1.392-2.05c3.881.295,10.9,1.783,15.561,8.3A20.034,20.034,0,0,1,1454.057,224.78Z"/><path class="c" d="M1478.075,206.856c-2.489,4.719-8.458,6.092-13.93,8.457-3.662,1.582-7.313,5.94-10.088,9.467a20.034,20.034,0,0,0-3.718-12.2c-4.663-6.521-11.68-8.009-15.561-8.3a4.565,4.565,0,0,0,.229-1.764c-.248-3.623-.724-10.707-1.039-16.009a6.7,6.7,0,0,1,2.088-5.234c9.106-8.638,14.969-11.022,25.1-10.107,10.946,1,20.519,11.318,20.891,15.055S1480.563,202.127,1478.075,206.856Z"/><path class="d" d="M1436.322,231.486l-.072-.95c.059,0,5.924-.5,8.62-3.835a16.192,16.192,0,0,0,3.32-6.622l.941.16a16.832,16.832,0,0,1-3.52,7.06C1442.656,230.962,1436.579,231.467,1436.322,231.486Z"/><path class="d" d="M1435.1,216.819l-.862-.407c.067-.142,1.676-3.5,4.1-4.173l.255.919C1436.592,213.713,1435.116,216.788,1435.1,216.819Z"/><path class="d" d="M1430.592,217.822c-.022-.016-2.039-1.678-3.594-1.421l-.156-.94c1.98-.325,4.264,1.548,4.359,1.628Z"/><path class="h" d="M1455.064,200.134s1.958-9.02,6.723-8.594,5.445,4.68,5.531,5.956-.681,6.3-8.595,5.191"/><path class="d" d="M1460.862,203.323a16,16,0,0,1-2.205-.164l.132-.944c3.02.421,5.25-.018,6.636-1.307a4.567,4.567,0,0,0,1.417-3.381c-.08-1.193-.684-5.119-5.1-5.513-4.282-.379-6.193,8.135-6.213,8.221l-.931-.2c.084-.386,2.06-9.41,7.23-8.968,5.3.473,5.9,5.413,5.965,6.4a5.506,5.506,0,0,1-1.72,4.142A7.392,7.392,0,0,1,1460.862,203.323Z"/><ellipse class="d" cx="3.917" cy="4.011" rx="3.917" ry="4.011" transform="translate(1456.573 192.722)"/><path class="d" d="M1471.342,213.672l-10.336-.33a5.217,5.217,0,0,1-2.731-.875l-7.781-5.187a5.256,5.256,0,0,1-1.83-6.57l6.352-13.509a5.235,5.235,0,0,1,2.544-2.523l9.319-4.287a5.256,5.256,0,0,1,3.5-.308l12.162,3.177-.24.923-12.162-3.178a4.28,4.28,0,0,0-2.865.252l-9.319,4.287a4.281,4.281,0,0,0-2.081,2.063l-6.352,13.509a4.3,4.3,0,0,0,1.5,5.371l7.781,5.187a4.273,4.273,0,0,0,2.232.716l10.336.329Z"/></g><path class="c" d="M1476.7,182.416c.373,0,2.114-.5,4.352-3.109s6.716-14.675,15.173-16.541,22.012,2.363,22.012,2.363-11.69,27.982-21.639,27.733-14.675-3.358-17.909-2.984"/><path class="d" d="M1496.733,193.34c-.047,0-.1,0-.142,0a49.29,49.29,0,0,1-12.955-2.119,14.254,14.254,0,0,0-4.887-.869l-.11-.947a14.975,14.975,0,0,1,5.253.9,48.376,48.376,0,0,0,12.723,2.084c.04,0,.083,0,.123,0,8.78,0,19.25-23.263,20.854-26.953-2.531-.732-13.94-3.815-21.26-2.2-6.2,1.368-10.181,8.384-12.814,13.026a25.1,25.1,0,0,1-2.1,3.359c-2.3,2.687-4.185,3.275-4.716,3.275v-.953c.014,0,1.639-.2,3.991-2.942a25.282,25.282,0,0,0,1.994-3.209c2.552-4.5,6.823-12.028,13.438-13.487,8.482-1.871,21.7,2.2,22.256,2.373l.5.156-.2.483C1518.2,166.463,1506.855,193.339,1496.733,193.34Z"/><path class="c" d="M1514.635,167.243s-12.063-2.238-19.773,2.363-8.581,11.442-12.188,13.307a28.18,28.18,0,0,1-5.1,2.239"/><path class="d" d="M1477.691,185.614l-.232-.925a28.435,28.435,0,0,0,5-2.2c1.383-.715,2.353-2.26,3.581-4.214,1.772-2.82,3.977-6.331,8.582-9.079,7.776-4.639,19.6-2.514,20.1-2.423l-.173.938c-.119-.021-11.976-2.15-19.442,2.3-4.408,2.631-6.546,6.033-8.263,8.767-1.253,1.995-2.336,3.719-3.95,4.554A28.335,28.335,0,0,1,1477.691,185.614Z"/><path class="d" d="M1473.095,257.833l-.74-.6c.06-.072,4.812-5.906,7.305-9.852-5.875,4.774-14.7,7.674-15.12,7.81l-.3-.907c.114-.037,11.453-3.763,16.838-9.511a.477.477,0,0,1,.794.494C1480.62,248.593,1473.4,257.457,1473.095,257.833Z"/></g><path class="d" d="M1464.021,296.461a85.005,85.005,0,1,1,85-85.01A85.1,85.1,0,0,1,1464.021,296.461Zm0-167.149a82.145,82.145,0,1,0,82.139,82.139A82.232,82.232,0,0,0,1464.021,129.312Z"/><path class="d" d="M1461.663,191.2a5.759,5.759,0,0,0,3.391-3.326c.913,1.728,1.142,3,.033,4.76a6.447,6.447,0,0,0,1.891-2.347s1.142,2.347-.521,3.913a28.746,28.746,0,0,0-3.49-2.544"/><path class="h" d="M1430.321,189.038a3.816,3.816,0,1,1-2.843-4.388,4.438,4.438,0,0,1,.012,2.22,1.668,1.668,0,0,0-1.092-.263,1.76,1.76,0,1,0,1.9,2.071A8.005,8.005,0,0,0,1430.321,189.038Z"/><path class="d" d="M1426.563,192.669a4.315,4.315,0,1,1,1.032-8.505.5.5,0,0,1,.368.365,4.939,4.939,0,0,1,.009,2.476.5.5,0,0,1-.753.285,1.173,1.173,0,0,0-.771-.185,1.26,1.26,0,1,0,1.354,1.49.5.5,0,0,1,.635-.4,7.364,7.364,0,0,0,1.9.339.5.5,0,0,1,.48.587,4.312,4.312,0,0,1-3.808,3.522A4.375,4.375,0,0,1,1426.563,192.669Zm.005-7.63c-.108,0-.216.005-.326.016a3.315,3.315,0,1,0,3.443,4.435,8.418,8.418,0,0,1-1.056-.2,2.259,2.259,0,1,1-2.28-3.178,2.182,2.182,0,0,1,.762.055,4.192,4.192,0,0,0-.054-1.089A3.229,3.229,0,0,0,1426.568,185.039Z"/><path class="h" d="M1492.543,192.565a3.09,3.09,0,0,1-1.856,3.634,3.815,3.815,0,1,1-2.393-7.127,4.427,4.427,0,0,1,.863,2.046,1.672,1.672,0,0,0-1.109.176,1.76,1.76,0,1,0,2.546,1.186C1491.227,192.411,1491.875,192.614,1492.543,192.565Z"/><path class="d" d="M1488.876,197.16a4.316,4.316,0,0,1-.66-8.581.492.492,0,0,1,.48.2,4.916,4.916,0,0,1,.956,2.285.494.494,0,0,1-.154.423.513.513,0,0,1-.432.127,1.153,1.153,0,0,0-.782.125,1.26,1.26,0,0,0,1.195,2.219,1.239,1.239,0,0,0,.627-1.362.5.5,0,0,1,.434-.61,5.052,5.052,0,0,1,1.1.039,4.885,4.885,0,0,0,.869.046.5.5,0,0,1,.524.39,3.594,3.594,0,0,1-2.107,4.183A4.329,4.329,0,0,1,1488.876,197.16Zm-.807-7.533a3.247,3.247,0,0,0-.76.294,3.315,3.315,0,1,0,3.141,5.838,2.6,2.6,0,0,0,1.672-2.691c-.2-.009-.4-.031-.594-.053-.134-.015-.266-.029-.394-.039a2.259,2.259,0,1,1-3.323-2.122,2.218,2.218,0,0,1,.727-.242A4.074,4.074,0,0,0,1488.069,189.627Z"/></g></svg>