<svg xmlns="http://www.w3.org/2000/svg" xmlns:xlink="http://www.w3.org/1999/xlink" width="170" height="169.999" viewBox="0 0 170 169.999"><defs><style>.a{fill:none;}.b{clip-path:url(#a);}.c{fill:#7e25e7;}.d{fill:#f193eb;}.e{fill:#f9e2a7;}.f{fill:#6ff1db;}.g{fill:#fff;}</style><clipPath id="a"><circle class="a" cx="83.57" cy="83.57" r="83.57" transform="translate(1355.67 762.844)"/></clipPath></defs><g transform="translate(-1354.239 -761.414)"><g class="b"><circle cx="83.57" cy="83.57" r="83.57" transform="translate(1355.67 762.844)"/><path class="c" d="M1454.687,835.852s17.952,28.914,26.311,38.1c17.54,7.126,47.551,26.311,47.551,26.311s-42.755,47.414-58.925,47.825-39.329-7.263-39.329-7.263.548-27.407,2.877-36.725c-5.07-17.678-10.414-41.385-10.414-41.385Z"/><path d="M1423.059,877.273s12.439,2.623,20.157-6.069,8.317-21.58,8.317-21.58l-29.6,23.6Z"/><path class="c" d="M1430.957,874.907c11.922-.411,16.1-12.2,16.787-16.718s10.449-9.49,11.511-19.733-.549-12.882-7.674-20.967-25.9-7.948-25.9-7.948l-1.262.026s-11.8-.163-18.928,7.922-8.736,10.723-7.674,20.967,10.826,15.211,11.511,19.733,4.865,16.307,16.787,16.718Z"/><path class="c" d="M1420.432,812.961c-.191-.136-15.031-12.95-21.988-18.959a2.824,2.824,0,0,0-4.621,1.609,47.909,47.909,0,0,0-.559,16.311c1.692,9.91,7.1,13.887,7.1,13.887s8.759.762,14.028-3.607S1420.432,812.961,1420.432,812.961Z"/><path class="d" d="M1402.539,820.606a19.716,19.716,0,0,1-4.1-9.568,37.174,37.174,0,0,1-.109-10.191c8.648,7.469,13.315,11.495,15.86,13.684a14.1,14.1,0,0,1-3.155,3.627C1408.783,820.027,1405,820.538,1402.539,820.606Z"/><path class="c" d="M1433.116,813.242c.19-.139,14.886-13.117,21.775-19.2a2.824,2.824,0,0,1,4.639,1.557,47.916,47.916,0,0,1,.741,16.3c-1.581,9.929-6.942,13.966-6.942,13.966s-8.75.86-14.069-3.45S1433.116,813.242,1433.116,813.242Z"/><path class="d" d="M1451.093,820.687a19.716,19.716,0,0,0,3.991-9.614,37.224,37.224,0,0,0-.006-10.191c-8.564,7.565-13.185,11.643-15.7,13.86a14.077,14.077,0,0,0,3.194,3.592C1444.843,820.178,1448.634,820.647,1451.093,820.687Z"/><path class="c" d="M1409.876,856.613s-2.4,4.865-1.781,7.194,3.494,7.058,5.755,7.126,10-2.535,10.826-6.578a26.463,26.463,0,0,0,.446-7.4"/><path class="e" d="M1413.937,871.411h-.1c-2.65-.081-5.609-5.235-6.2-7.481-.655-2.474,1.714-7.322,1.815-7.527l.855.422c-.644,1.309-2.216,5.093-1.748,6.861.595,2.252,3.368,6.713,5.309,6.771,2.09.09,9.589-2.483,10.344-6.2a26.2,26.2,0,0,0,.438-7.252l.948-.106a26.676,26.676,0,0,1-.451,7.548C1424.275,868.718,1416.5,871.411,1413.937,871.411Z"/><path class="c" d="M1440.419,856.613s2.4,4.865,1.781,7.194-3.494,7.058-5.755,7.126-10-2.535-10.826-6.578a27.959,27.959,0,0,1-.48-7.485"/><path class="e" d="M1436.359,871.411c-2.563,0-10.338-2.692-11.207-6.961a28.08,28.08,0,0,1-.487-7.627l.949.094a27.659,27.659,0,0,0,.473,7.343c.746,3.667,8.045,6.2,10.263,6.2l.081,0c1.94-.058,4.712-4.519,5.308-6.771.469-1.768-1.1-5.552-1.747-6.861l.854-.422c.1.205,2.47,5.053,1.815,7.527-.594,2.246-3.553,7.4-6.2,7.481Z"/><path class="d" d="M1424.951,850.48a50.608,50.608,0,0,0,5.858-1.473c1.508-.616,2.433,2.5.994,3.563s-3.22.651-4.282,2.878-1.987,2.33-2.536,2.432h.068c-.548-.1-1.473-.205-2.535-2.432s-2.844-1.816-4.282-2.878-.514-4.179.993-3.563a50.609,50.609,0,0,0,5.858,1.473Z"/><rect class="e" width="0.954" height="8.161" transform="matrix(0.101, -0.995, 0.995, 0.101, 1404.689, 861.301)"/><rect class="e" width="6.712" height="0.954" transform="matrix(0.903, -0.43, 0.43, 0.903, 1406.932, 868.381)"/><rect class="e" width="7.809" height="0.954" transform="matrix(0.983, -0.184, 0.184, 0.983, 1405.027, 864.848)"/><rect class="e" width="8.161" height="0.954" transform="translate(1439.085 861.178) rotate(-5.827)"/><rect class="e" width="0.954" height="6.712" transform="translate(1438.586 866.362) rotate(-64.611)"/><rect class="e" width="0.954" height="7.809" transform="translate(1439.112 864.354) rotate(-79.454)"/><path class="e" d="M1418.36,846.637l-.933-.193c1.783-8.574,4.1-11.648,4.2-11.774l.755.582C1422.36,835.282,1420.09,838.321,1418.36,846.637Z"/><path class="e" d="M1432.912,846.638c-1.741-8.361-4-11.356-4.023-11.385l.72.062c.1.127,2.452,2.555,4.236,11.128Z"/><path class="f" d="M1416.429,843.73H1404.5a3.906,3.906,0,0,1-3.8-3.018l-2.334-9.987a3.907,3.907,0,0,1,3.805-4.795h14.258a3.906,3.906,0,0,1,3.906,3.907v9.986A3.906,3.906,0,0,1,1416.429,843.73Z"/><path class="e" d="M1416.429,844.207H1404.5a4.366,4.366,0,0,1-4.269-3.386l-2.333-9.987a4.384,4.384,0,0,1,4.269-5.381h14.258a4.389,4.389,0,0,1,4.383,4.384v9.986A4.389,4.389,0,0,1,1416.429,844.207Zm-14.258-17.8a3.43,3.43,0,0,0-3.34,4.21l2.334,9.987a3.414,3.414,0,0,0,3.339,2.649h11.925a3.434,3.434,0,0,0,3.43-3.43v-9.986a3.434,3.434,0,0,0-3.43-3.43Z"/><path class="f" d="M1434.718,843.73h11.925a3.906,3.906,0,0,0,3.8-3.018l2.333-9.987a3.906,3.906,0,0,0-3.8-4.795h-14.258a3.907,3.907,0,0,0-3.907,3.907v9.986A3.907,3.907,0,0,0,1434.718,843.73Z"/><path class="e" d="M1446.642,844.207h-11.924a4.389,4.389,0,0,1-4.384-4.384v-9.986a4.389,4.389,0,0,1,4.384-4.384h14.258a4.385,4.385,0,0,1,4.269,5.381l-2.334,9.987A4.365,4.365,0,0,1,1446.642,844.207Zm-11.924-17.8a3.434,3.434,0,0,0-3.43,3.43v9.986a3.434,3.434,0,0,0,3.43,3.43h11.924a3.414,3.414,0,0,0,3.34-2.649l2.333-9.987a3.428,3.428,0,0,0-3.339-4.21Z"/><path class="e" d="M1430.413,836.42l-2.36-1.137a6.084,6.084,0,0,0-4.851-.183l-2.72,1.065-.348-.887,2.72-1.066a7.042,7.042,0,0,1,5.613.213l2.359,1.136Z"/><path class="g" d="M1438.525,839.5c5.906.467,9.325-1.968,9.584-3.781s-2.745-4.611-6.838-4.093a10.918,10.918,0,0,0-6.165,2.642s-.3,4.132,1.489,4.714A6.781,6.781,0,0,0,1438.525,839.5Z"/><path class="c" d="M1439.948,840.038q-.7,0-1.46-.059l.074-.951c5.939.471,8.881-2.008,9.076-3.374a2.445,2.445,0,0,0-.87-1.858,6.534,6.534,0,0,0-5.438-1.694,10.588,10.588,0,0,0-5.883,2.5l-.683-.667a11.324,11.324,0,0,1,6.447-2.782,7.517,7.517,0,0,1,6.237,1.971,3.324,3.324,0,0,1,1.134,2.662C1448.31,837.686,1445.194,840.037,1439.948,840.038Z"/><ellipse class="c" cx="3.357" cy="3.437" rx="3.357" ry="3.437" transform="translate(1437.108 831.745)"/><path class="c" d="M1442.527,831.164a4.376,4.376,0,0,0,1.682-2.519,3.154,3.154,0,0,1,.526,2.238,4.09,4.09,0,0,0,1.481-2.11,5.717,5.717,0,0,1,.442,3.215,10.211,10.211,0,0,0,1.286-1.485,3.662,3.662,0,0,1-.919,2.865,4.076,4.076,0,0,0-3.177-1.593"/><path class="g" d="M1413.472,839.5c-5.906.467-9.326-1.968-9.585-3.781s2.746-4.611,6.839-4.093a10.918,10.918,0,0,1,6.165,2.642s.3,4.132-1.49,4.714A6.773,6.773,0,0,1,1413.472,839.5Z"/><path class="c" d="M1412.049,840.038q.705,0,1.46-.059l-.075-.951c-5.938.471-8.88-2.008-9.075-3.374a2.446,2.446,0,0,1,.87-1.858,6.533,6.533,0,0,1,5.437-1.694,10.59,10.59,0,0,1,5.884,2.5l.682-.667a11.317,11.317,0,0,0-6.447-2.782,7.516,7.516,0,0,0-6.236,1.971,3.32,3.32,0,0,0-1.134,2.662C1403.687,837.686,1406.8,840.037,1412.049,840.038Z"/><ellipse class="c" cx="3.357" cy="3.437" rx="3.357" ry="3.437" transform="translate(1408.174 831.745)"/><path class="c" d="M1409.469,831.164a4.38,4.38,0,0,1-1.681-2.519,3.155,3.155,0,0,0-.526,2.238,4.091,4.091,0,0,1-1.481-2.11,5.718,5.718,0,0,0-.442,3.215,10.16,10.16,0,0,1-1.286-1.485,3.662,3.662,0,0,0,.919,2.865,4.075,4.075,0,0,1,3.177-1.593"/><path class="e" d="M1427.293,883.283s15.555,8.119,27.587,2.837,17.413-24.163,17.413-24.163l3.816,5.184s-7.435,27.979-20.348,31.892-26.9-9.49-26.9-9.49Z"/><rect class="c" width="1.001" height="13.932" transform="translate(1431.599 883.293) rotate(-12.571)"/><rect class="c" width="0.999" height="17.349" transform="matrix(0.976, -0.22, 0.22, 0.976, 1439.328, 884.664)"/><rect class="c" width="1.001" height="19.861" transform="matrix(0.951, -0.31, 0.31, 0.951, 1448.829, 884.416)"/><rect class="c" width="1.001" height="18.857" transform="matrix(0.835, -0.55, 0.55, 0.835, 1455.832, 879.742)"/><rect class="c" width="1" height="16.234" transform="matrix(0.759, -0.651, 0.651, 0.759, 1462.816, 875.684)"/><rect class="c" width="1.001" height="17.403" transform="matrix(0.753, -0.658, 0.658, 0.753, 1466.242, 866.981)"/></g><path class="c" d="M1439.239,931.413a85,85,0,1,1,85-85A85.1,85.1,0,0,1,1439.239,931.413Zm0-167.139a82.139,82.139,0,1,0,82.14,82.139A82.232,82.232,0,0,0,1439.239,764.274Z"/></g></svg>