<svg xmlns="http://www.w3.org/2000/svg" xmlns:xlink="http://www.w3.org/1999/xlink" width="170" height="170" viewBox="0 0 170 170"><defs><style>.a,.g{fill:none;}.b{clip-path:url(#a);}.c{fill:#f193eb;}.d{fill:#fff;}.e{fill:#7e25e7;}.f{fill:#f9e2a7;}.g{stroke:#7e25e7;stroke-linejoin:round;}</style><clipPath id="a"><circle class="a" cx="83.57" cy="83.57" r="83.57" transform="translate(1176.67 545.017)"/></clipPath></defs><g transform="translate(-1175.239 -543.587)"><g class="b"><circle cx="83.57" cy="83.57" r="83.57" transform="translate(1176.67 545.017)"/><path class="c" d="M1306.791,659.3c-6.951-10.359-14.868-15.557-20.61-18.146l7.328-8.639a14.77,14.77,0,0,0,.477-18.516L1275.5,589.788h-33.866L1223.156,614a14.771,14.771,0,0,0,.478,18.516l13.155,15.51c-6.609,15.825-13.07,59.527-13.07,59.527a39.189,39.189,0,0,0,26.364,13.928c17.411,1.741,70.139-19.649,70.139-19.649S1319.476,678.207,1306.791,659.3Z"/><path class="d" d="M1269.064,616.975a46.074,46.074,0,0,0,9,.606,22.066,22.066,0,0,0,5.83-.839s.886,7.368-6.2,8.814-7.322-5.363-7.322-5.363"/><path class="e" d="M1275.829,626.235a5.665,5.665,0,0,1-3.611-1.151,7.026,7.026,0,0,1-2.325-4.875l.953-.033a6.16,6.16,0,0,0,1.967,4.164,5.66,5.66,0,0,0,4.783.749c5.525-1.127,5.9-6.029,5.859-7.723a28.886,28.886,0,0,1-5.365.691,45.835,45.835,0,0,1-9.109-.613l.166-.938a45.985,45.985,0,0,0,8.891.6,22.261,22.261,0,0,0,5.687-.809.477.477,0,0,1,.641.389c.01.078.853,7.822-6.58,9.338A9.815,9.815,0,0,1,1275.829,626.235Z"/><path class="c" d="M1235.9,601.527c-7.416,9.848-15.693,16.126-23.511,10.239s-9.635-19.766-2.219-29.615,21.256-11.937,29.075-6.05S1243.316,591.678,1235.9,601.527Z"/><path class="f" d="M1218.729,609.276a5.718,5.718,0,0,1-3.473-1.319c-5.474-4.122-7.225-15.04-1.278-22.938a18.81,18.81,0,0,1,14.716-7.421,12.807,12.807,0,0,1,7.683,2.312c2.185,1.644,2.832,3.521,2.236,6.475-.662,3.277-2.856,7.407-6.521,12.274C1225.136,607.9,1220.734,609.276,1218.729,609.276Z"/><path class="c" d="M1281.548,601.527c7.416,9.848,15.693,16.126,23.512,10.239s9.634-19.766,2.218-29.615-21.256-11.937-29.074-6.05S1274.132,591.678,1281.548,601.527Z"/><path class="f" d="M1298.72,609.276a5.717,5.717,0,0,0,3.472-1.319c5.474-4.122,7.225-15.04,1.278-22.938a18.808,18.808,0,0,0-14.716-7.421,12.809,12.809,0,0,0-7.683,2.312c-2.184,1.644-2.832,3.521-2.235,6.475.662,3.277,2.856,7.407,6.52,12.274C1292.312,607.9,1296.715,609.276,1298.72,609.276Z"/><path class="e" d="M1258.1,636.629h0a6.031,6.031,0,0,1-6.031-6.031v-7.129a10.036,10.036,0,0,1,3.2-7.353l1.333-1.238a2.328,2.328,0,0,1,3.205.033l1.265,1.225a10.037,10.037,0,0,1,3.055,7.211V630.6A6.031,6.031,0,0,1,1258.1,636.629Z"/><path class="e" d="M1263.991,644.392c-2.536,0-4.771-2.234-6.206-3.763a7.832,7.832,0,0,1-6.038,3.3v-.953a6.82,6.82,0,0,0,5.559-3.358.481.481,0,0,1,.359-.231.467.467,0,0,1,.4.149l.151.161c1.308,1.4,3.492,3.745,5.776,3.745h.059l.017.953Z"/><path class="e" d="M1279.184,623.062a4.043,4.043,0,0,1-.7,2.3c-.248.076-.515.143-.792.2-3.546.725-5.377-.629-6.321-2.155-.009-.114-.019-.228-.019-.343a3.92,3.92,0,1,1,7.837,0Z"/><path class="d" d="M1247.284,616.975a46.075,46.075,0,0,1-9,.606,22.066,22.066,0,0,1-5.83-.839s-.886,7.368,6.2,8.814,7.322-5.363,7.322-5.363"/><path class="e" d="M1240.518,626.235a9.82,9.82,0,0,1-1.956-.212c-7.433-1.516-6.59-9.26-6.581-9.338a.478.478,0,0,1,.642-.389,22.235,22.235,0,0,0,5.687.809,45.977,45.977,0,0,0,8.891-.6l.166.938a46.156,46.156,0,0,1-9.11.613,28.874,28.874,0,0,1-5.364-.691c-.04,1.694.334,6.6,5.859,7.723a5.661,5.661,0,0,0,4.782-.749,6.162,6.162,0,0,0,1.968-4.164l.954.033a7.038,7.038,0,0,1-2.326,4.875A5.666,5.666,0,0,1,1240.518,626.235Z"/><path class="e" d="M1236.3,622.651a4.044,4.044,0,0,0,.277,2.388c.23.12.48.234.742.34,3.356,1.356,5.4.357,6.607-.972.03-.111.06-.221.081-.334a3.92,3.92,0,1,0-7.707-1.422Z"/><path class="e" d="M1220.9,649.853h28.634a2.787,2.787,0,0,1,2.262,1.539l20.563,43.743c.4.85.035,1.539-.815,1.539h-28.634a2.789,2.789,0,0,1-2.263-1.539l-20.563-43.743C1219.681,650.542,1220.046,649.853,1220.9,649.853Z"/><ellipse class="d" cx="1.5" cy="2.378" rx="1.5" ry="2.378" transform="translate(1245.274 655.358) rotate(-53.057)"/><path class="c" d="M1290.749,662.782s-.991,13.376-9.82,14.244c-6.359.62-9.773-2.183-11.193-3.814-.01,0-.01-.009-.01-.019a7.564,7.564,0,0,0-3.852-4.309c-3.556-1.554-9.3-4.09-12.432-1.812-1.325.963-1.678,2.985,1.182,3.862a23.472,23.472,0,0,1,5.053,2.479,20.415,20.415,0,0,0-6.95.333,2.55,2.55,0,0,0-1.85,2.67.175.175,0,0,1,.01.067,2.544,2.544,0,0,0,2.631,2.24,17.062,17.062,0,0,1,4.148.3,21.935,21.935,0,0,0-3.233,2.078,2.558,2.558,0,0,0,3.013,4.128l1.278-.867a5.939,5.939,0,0,0,4.166,3.327c1.735,3.347,6.112,5.549,15.856,5.254m-19.059-19.526c.162.028.238.047.219.066S1259.811,673.47,1259.687,673.413Z"/><path class="e" d="M1277.068,693.442c-7.753,0-12.506-1.755-14.5-5.346a6.491,6.491,0,0,1-4.031-3.036l-.825.56a3.035,3.035,0,0,1-3.576-4.9,19.526,19.526,0,0,1,2.112-1.445,18.4,18.4,0,0,0-2.713-.078,3.012,3.012,0,0,1-.941-5.911,18.214,18.214,0,0,1,5.086-.5,16.373,16.373,0,0,0-3.2-1.4c-1.937-.594-2.389-1.656-2.486-2.236a2.593,2.593,0,0,1,1.162-2.467c3.336-2.426,9.048.074,12.828,1.727a8.024,8.024,0,0,1,4.155,4.541c1.437,1.623,4.715,4.181,10.738,3.6,8.334-.819,9.382-13.676,9.391-13.806l.952.071c-.042.562-1.126,13.787-10.25,14.684-6.521.635-10.067-2.218-11.6-3.975l0,0a.515.515,0,0,1-.1-.156h0a7.078,7.078,0,0,0-3.6-4.046c-3.44-1.505-9.068-3.967-11.962-1.864a1.676,1.676,0,0,0-.782,1.539c.1.626.752,1.152,1.824,1.481a19.9,19.9,0,0,1,4.56,2.175c.207.125.377.229.507.3a.586.586,0,0,1,.533.377.492.492,0,0,1-.125.49.64.64,0,0,1-.682.056,19.773,19.773,0,0,0-6.7.328,2.064,2.064,0,0,0-1.507,2.161.727.727,0,0,1,.012.117,2.085,2.085,0,0,0,2.138,1.764,17.1,17.1,0,0,1,4.263.3.477.477,0,0,1,.129.886,21.578,21.578,0,0,0-3.162,2.031,2.081,2.081,0,0,0,2.449,3.361l1.275-.866a.478.478,0,0,1,.714.224,5.431,5.431,0,0,0,3.831,3.033.482.482,0,0,1,.314.245c1.876,3.62,6.919,5.256,15.416,5l.03.954Q1277.892,693.441,1277.068,693.442Z"/><path class="g" d="M1270.232,674.909"/><path class="g" d="M1269.736,673.212"/><path class="e" d="M1243.707,617.228c-5.935-1.043-8.609-4.4-8.609-4.4a3.1,3.1,0,0,0,1.532,3.391c-3.358.392-6.782-4.043-6.782-4.043s.293,4.239,3.13,4.956a36.6,36.6,0,0,0,7.924.522C1241,617.652,1243.707,617.228,1243.707,617.228Z"/><path class="e" d="M1279.462,617.228c-5.935-1.043-8.609-4.4-8.609-4.4a3.1,3.1,0,0,0,1.533,3.391c-3.359.392-6.783-4.043-6.783-4.043s.294,4.239,3.131,4.956a36.6,36.6,0,0,0,7.924.522C1276.755,617.652,1279.462,617.228,1279.462,617.228Z"/><circle class="f" cx="2.495" cy="2.495" r="2.495" transform="translate(1263.304 688.707)"/><path class="e" d="M1265.8,694.2a2.995,2.995,0,1,1,2.995-2.995A3,3,0,0,1,1265.8,694.2Zm0-4.989a1.995,1.995,0,1,0,1.995,1.994A2,2,0,0,0,1265.8,689.207Z"/><circle class="f" cx="2.495" cy="2.495" r="2.495" transform="translate(1271.783 672.533)"/><path class="e" d="M1274.277,678.022a2.994,2.994,0,1,1,2.994-2.995A3,3,0,0,1,1274.277,678.022Zm0-4.989a1.994,1.994,0,1,0,1.994,1.994A2,2,0,0,0,1274.277,673.033Z"/><circle class="f" cx="2.495" cy="2.495" r="2.495" transform="translate(1271.522 675.859)"/><path class="e" d="M1274.017,681.348a2.995,2.995,0,1,1,2.994-2.995A3,3,0,0,1,1274.017,681.348Zm0-4.989a1.995,1.995,0,1,0,1.994,1.994A2,2,0,0,0,1274.017,676.359Z"/><circle class="f" cx="2.495" cy="2.495" r="2.495" transform="translate(1270.348 679.576)"/><path class="e" d="M1272.843,685.065a2.995,2.995,0,1,1,2.994-2.994A3,3,0,0,1,1272.843,685.065Zm0-4.989a1.995,1.995,0,1,0,1.994,1.995A2,2,0,0,0,1272.843,680.076Z"/><circle class="f" cx="2.495" cy="2.495" r="2.495" transform="translate(1268.783 682.837)"/><path class="e" d="M1271.277,688.326a2.995,2.995,0,1,1,2.994-2.994A3,3,0,0,1,1271.277,688.326Zm0-4.989a1.995,1.995,0,1,0,1.994,1.995A2,2,0,0,0,1271.277,683.337Z"/><circle class="f" cx="2.495" cy="2.495" r="2.495" transform="translate(1266.239 686.293)"/><path class="e" d="M1268.733,691.783a2.995,2.995,0,1,1,3-2.995A3,3,0,0,1,1268.733,691.783Zm0-4.99a1.995,1.995,0,1,0,2,1.995A2,2,0,0,0,1268.733,686.793Z"/></g><path class="e" d="M1260.239,713.587a85,85,0,1,1,85-85A85.1,85.1,0,0,1,1260.239,713.587Zm0-167.139a82.139,82.139,0,1,0,82.14,82.139A82.232,82.232,0,0,0,1260.239,546.448Z"/></g></svg>