<svg xmlns="http://www.w3.org/2000/svg" xmlns:xlink="http://www.w3.org/1999/xlink" width="170" height="170.001" viewBox="0 0 170 170.001"><defs><style>.a{fill:none;}.b{clip-path:url(#a);}.c{fill:#f9e2a7;}.d{fill:#7e25e7;}.e{fill:#fff;}.f{fill:#6ff1db;}.g{fill:#f193eb;}</style><clipPath id="a"><circle class="a" cx="83.57" cy="83.57" r="83.57" transform="translate(1388.799 527.016)"/></clipPath></defs><g transform="translate(-1387.369 -525.586)"><g class="b"><circle cx="83.57" cy="83.57" r="83.57" transform="translate(1388.799 527.016)"/><path class="c" d="M1519.879,703.98c-34.705,8.085-103.095.124-103.095.124L1414.42,690.3c0-.324,8.647-24.865,19.211-37.355,2.384-.238,6.236-.162,9.325,2.04,4.853,3.452,21.08,20.8,37.594,19.307,12.051-1.1,17.247-12.871,19.173-19.145C1505.339,666.4,1519.183,694.875,1519.879,703.98Z"/><path class="d" d="M1499.723,655.145c-1.926,6.274-7.122,18.049-19.173,19.145-16.514,1.5-32.741-15.855-37.594-19.307-3.089-2.2-6.941-2.278-9.325-2.04a29.29,29.29,0,0,1,4.663-4.548c15.293,5.339,31.778,15.331,41.112,16.561a.017.017,0,0,0,.028,0,5.021,5.021,0,0,0,2.288.1,6.188,6.188,0,0,0,2.584-.629c4.415-2.279,8.3-6.97,10.669-10.278l3.385-1.716C1498.722,653.162,1499.18,654.078,1499.723,655.145Z"/><path class="c" d="M1479.434,664.956a11.165,11.165,0,0,0,2.288.1A5.021,5.021,0,0,1,1479.434,664.956Z"/><path class="c" d="M1498.36,652.438l-3.385,1.716c1.506-2.107,2.393-3.652,2.393-3.652S1497.73,651.2,1498.36,652.438Z"/><path class="c" d="M1457.943,623.893s-20.022-2.611-31.587,4.228-9.949,15.048-9.949,15.048l23.877-.5,21.266-6.343Z"/><path class="c" d="M1433.071,633.469s10.322-2.86,16.54.622,24.748,27.11,32.458,25.867,9.079-20.271,9.079-20.271,4.974-1.368,6.964,2.86.249,23.131-12.561,29.1-36.064-16.292-41.909-18.9-21.141,2.114-24.872-3.482-2.612-10.7,1.368-12.436S1433.071,633.469,1433.071,633.469Z"/><path class="d" d="M1428.221,635.583s10.82-8.83,30.842-6.342a21.6,21.6,0,0,1-8.706,11.316Z"/><path class="e" d="M1470.64,684.821c-.5-3.995,1.195-9.427,1.267-9.656l2.728.861c-.016.05-1.579,5.069-1.158,8.44Z"/><circle class="e" cx="2.114" cy="2.114" r="2.114" transform="translate(1469.944 683.275)"/><path class="e" d="M1491.878,682.676c.5-3.995-1.2-9.427-1.267-9.656l-2.728.861c.016.05,1.579,5.069,1.158,8.44Z"/><circle class="e" cx="2.114" cy="2.114" r="2.114" transform="translate(1488.346 681.13)"/><path class="f" d="M1475.887,602.621c-3.432,7.256-13.729,30.386-15.4,49.731a58.008,58.008,0,0,1-9.505-11.918c4.662-25.18,14.358-53.354,14.358-53.354S1469.585,593.8,1475.887,602.621Z"/><path class="e" d="M1492.763,624.207c-1.869,3.165-2.422,28.726-2.422,28.726s-3.546,11.194-9.324,12.309c-3.842.744-12.938-5.329-20.528-12.89,1.669-19.345,11.966-42.475,15.4-49.731C1480.645,609.285,1486.585,617.142,1492.763,624.207Z"/><path class="g" d="M1520.685,552.58c.009,10.707-1.4,30.233-15.188,32.712-11.623,2.079-16.294-1.106-17.772-2.574,7.341-5.025,6.1-7.761,13.338-18.392C1507.079,555.478,1516.7,553.171,1520.685,552.58Z"/><path class="f" d="M1520.685,552.58c-3.985.591-13.606,2.9-19.622,11.746-7.236,10.631-6,13.367-13.338,18.392a3.881,3.881,0,0,1-.572-.687l.686-3.175s3.776-3.937,7.713-12.423,10.8-16.542,25.114-16.113C1520.675,551.016,1520.685,551.77,1520.685,552.58Z"/><path class="d" d="M1462.918,611.633s2.425,8.674,7.928,14.83,9.793,11.265,12.778,11.825a28.887,28.887,0,0,0,7.31,0l.28-3.544Z"/><path class="f" d="M1471,576.761s12.063-1.493,16.167-.5c4.726,4.353,13.307,15.3,15.172,21.141s2.985,30.593,0,34.2-14.3,4.725-16.415,3.979-23.256-19.151-24.873-27.484,4.54-25.447,6.529-28.431S1471,576.761,1471,576.761Z"/><path class="d" d="M1489.736,621.966a68.055,68.055,0,0,1,8.071-1.118,2.385,2.385,0,0,1,2.551,2.338v.027a2.328,2.328,0,0,1-.22,1.029c-.6,1.276-2.315,4.623-4.483,5.931-2.949-.245-5.871-2.843-7.136-4.112a2.359,2.359,0,0,1-.681-1.591l0-.1A2.37,2.37,0,0,1,1489.736,621.966Z"/><path class="d" d="M1487.022,619.676c-.035-.119-3.562-11.934-6.662-16.856l.806-.509c3.171,5.034,6.625,16.6,6.77,17.094Z"/><path class="d" d="M1500.142,621.367l-.952-.047c.007-.135.649-13.622-1.9-21.4l.905-.3C1500.8,607.57,1500.171,620.808,1500.142,621.367Z"/><path class="g" d="M1437.906,554.632c-.009,10.707,1.4,30.233,15.188,32.712,11.623,2.079,16.294-1.106,17.772-2.574-7.341-5.025-6.1-7.761-13.338-18.392C1451.512,557.53,1441.891,555.223,1437.906,554.632Z"/><path class="f" d="M1437.906,554.632c3.985.591,13.606,2.9,19.622,11.746,7.236,10.631,6,13.367,13.338,18.392a3.881,3.881,0,0,0,.572-.687l-.686-3.175s-3.776-3.937-7.713-12.423-10.8-16.542-25.114-16.113C1437.916,553.068,1437.906,553.822,1437.906,554.632Z"/><path class="e" d="M1480.574,607.641s-1.957-9.019-6.722-8.594-5.446,4.68-5.531,5.957.681,6.3,8.594,5.19"/><path class="d" d="M1474.776,610.83a7.388,7.388,0,0,1-5.213-1.717,5.5,5.5,0,0,1-1.718-4.141c.066-.986.662-5.926,5.964-6.4,5.134-.45,7.147,8.582,7.231,8.967l-.931.2c-.019-.085-1.965-8.61-6.214-8.22-4.417.4-5.019,4.32-5.1,5.513a4.562,4.562,0,0,0,1.415,3.38c1.386,1.289,3.618,1.728,6.637,1.307l.132.944A16.147,16.147,0,0,1,1474.776,610.83Z"/><ellipse class="d" cx="3.917" cy="4.011" rx="3.917" ry="4.011" transform="translate(1471.23 600.23)"/><path class="e" d="M1499.853,604.99s-.933-3.917,1.679-5.969,2.984,5.783,2.425,7.337-2.923,1.617-2.923,1.617"/><path class="d" d="M1501.047,608.452l-.026-.953c.019,0,2.045-.076,2.487-1.3.456-1.266.181-6.149-.94-6.959-.083-.06-.282-.2-.742.158-2.335,1.835-1.517,5.448-1.509,5.485l-.927.22c-.041-.172-.971-4.24,1.848-6.455a1.463,1.463,0,0,1,1.888-.181c1.71,1.235,1.736,6.787,1.279,8.055C1503.742,608.36,1501.156,608.449,1501.047,608.452Z"/><ellipse class="d" cx="2.003" cy="3.593" rx="2.003" ry="3.593" transform="translate(1499.391 599.608)"/></g><path class="d" d="M1472.37,695.587a85,85,0,1,1,85-85A85.1,85.1,0,0,1,1472.37,695.587Zm0-167.14a82.14,82.14,0,1,0,82.139,82.139A82.233,82.233,0,0,0,1472.37,528.447Z"/></g></svg>