<svg xmlns="http://www.w3.org/2000/svg" width="104.833" height="54.624" viewBox="0 0 104.833 54.624"><defs><style>.a{fill:#fff;}</style></defs><g transform="translate(-501.206 -161.034)"><circle class="a" cx="2.522" cy="2.522" r="2.522" transform="translate(595.573 195.45)"/><g transform="translate(501.206 161.034)"><path class="a" d="M550.692,188.308h-3.947v-17.08h3.947v3.85a7.512,7.512,0,0,1,2.3-3.106,5.5,5.5,0,0,1,3.753-1.067v4.14h-.226a6.4,6.4,0,0,0-2.361.421,4.95,4.95,0,0,0-1.844,1.262,5.7,5.7,0,0,0-1.2,2.118,9.479,9.479,0,0,0-.42,2.96Z" transform="translate(-525.179 -166.226)"/><path class="a" d="M591.272,178.716a8.513,8.513,0,0,1-1.779,2.8,7.408,7.408,0,0,1-2.555,1.731,7.828,7.828,0,0,1-2.96.582,6.282,6.282,0,0,1-3.494-.906,8.993,8.993,0,0,1-2.3-2.1l.033,2.652h-3.947V161.708h3.947v7.529a8.514,8.514,0,0,1,2.323-2.281,6.108,6.108,0,0,1,3.453-.922,7.667,7.667,0,0,1,2.937.582,7.421,7.421,0,0,1,2.533,1.731,8.729,8.729,0,0,1,1.792,2.8,9.893,9.893,0,0,1,.678,3.785A10.094,10.094,0,0,1,591.272,178.716ZM587.6,172.65a5.24,5.24,0,0,0-1.052-1.731,4.665,4.665,0,0,0-3.445-1.488,4.787,4.787,0,0,0-1.909.388,4.645,4.645,0,0,0-1.585,1.116,5.536,5.536,0,0,0-1.084,1.73,6.541,6.541,0,0,0,0,4.529,5.539,5.539,0,0,0,1.084,1.731,4.657,4.657,0,0,0,1.585,1.116,4.8,4.8,0,0,0,1.909.388,4.685,4.685,0,0,0,1.892-.388,4.635,4.635,0,0,0,1.552-1.1,5.23,5.23,0,0,0,1.052-1.731,6.89,6.89,0,0,0,0-4.561Z" transform="translate(-539.671 -161.389)"/><path class="a" d="M638.778,178.118a2.126,2.126,0,0,0,.55,1.639,2.215,2.215,0,0,0,1.552.5,5.358,5.358,0,0,0,2.427-.582v3.2a6.8,6.8,0,0,1-1.585.647,7.516,7.516,0,0,1-1.941.226,7.227,7.227,0,0,1-1.981-.26,4.05,4.05,0,0,1-1.583-.843,3.74,3.74,0,0,1-1.027-1.54,6.842,6.842,0,0,1-.358-2.383v-9.013h-2.972v-3.332h2.972v-2.807l3.947-1.883v4.691h5.188v3.332h-5.188Z" transform="translate(-569.986 -161.38)"/><path class="a" d="M672.9,188.388v-2.1a7.3,7.3,0,0,1-2.232,1.747,7.04,7.04,0,0,1-3.3.712,7.845,7.845,0,0,1-2.329-.34,5.723,5.723,0,0,1-1.925-1,4.875,4.875,0,0,1-1.828-3.931v-.065a5.362,5.362,0,0,1,.518-2.426,4.716,4.716,0,0,1,1.44-1.714,6.462,6.462,0,0,1,2.2-1.019,10.741,10.741,0,0,1,2.766-.34,15.208,15.208,0,0,1,2.637.194,16,16,0,0,1,2.087.518V178.2a3.4,3.4,0,0,0-1.083-2.717,4.635,4.635,0,0,0-3.122-.938,10.426,10.426,0,0,0-2.588.291,16.955,16.955,0,0,0-2.3.776l-1.067-3.138a18.026,18.026,0,0,1,2.911-1.035,14.4,14.4,0,0,1,3.591-.388q3.817,0,5.661,1.893a7.306,7.306,0,0,1,1.844,5.321v10.125Zm.1-7.246a10,10,0,0,0-1.763-.485,11.49,11.49,0,0,0-2.151-.194,5.034,5.034,0,0,0-2.879.711,2.325,2.325,0,0,0-1.035,2.038v.064a2.124,2.124,0,0,0,.954,1.876,4.077,4.077,0,0,0,2.346.647,5.956,5.956,0,0,0,1.795-.259,4.633,4.633,0,0,0,1.44-.728,3.31,3.31,0,0,0,.955-1.132A3.186,3.186,0,0,0,673,182.21Z" transform="translate(-585.48 -166.306)"/><path class="a" d="M705.415,188.308h-3.947v-17.08h3.947v3.85a7.508,7.508,0,0,1,2.3-3.106,5.5,5.5,0,0,1,3.752-1.067v4.14h-.226a6.4,6.4,0,0,0-2.362.421,4.952,4.952,0,0,0-1.844,1.262,5.693,5.693,0,0,0-1.2,2.118,9.466,9.466,0,0,0-.421,2.96Z" transform="translate(-606.63 -166.226)"/><path class="a" d="M514.307,235.652a4.614,4.614,0,0,1-1.343,1.666,6.018,6.018,0,0,1-2.022,1,8.862,8.862,0,0,1-2.491.34,11.5,11.5,0,0,1-3.736-.647,11.957,11.957,0,0,1-3.51-1.908l1.747-2.652a11.377,11.377,0,0,0,2.83,1.569,7.948,7.948,0,0,0,2.766.534,3.3,3.3,0,0,0,1.957-.5,1.574,1.574,0,0,0,.7-1.343v-.065a1.244,1.244,0,0,0-.307-.841,2.776,2.776,0,0,0-.841-.631,7.342,7.342,0,0,0-1.229-.485l-1.439-.437q-.939-.291-1.892-.647a6.835,6.835,0,0,1-1.715-.922,4.655,4.655,0,0,1-1.245-1.391,3.993,3.993,0,0,1-.485-2.054v-.065a4.921,4.921,0,0,1,.469-2.168,4.839,4.839,0,0,1,1.294-1.65,5.786,5.786,0,0,1,1.941-1.035,7.782,7.782,0,0,1,2.378-.356,10.88,10.88,0,0,1,3.267.518,11.73,11.73,0,0,1,3.009,1.424l-1.553,2.782a13.1,13.1,0,0,0-2.491-1.181,7.157,7.157,0,0,0-2.329-.437,2.832,2.832,0,0,0-1.763.485,1.489,1.489,0,0,0-.631,1.229v.065a1.11,1.11,0,0,0,.323.792,3.166,3.166,0,0,0,.857.615,9.525,9.525,0,0,0,1.229.518q.7.242,1.44.469.938.291,1.876.679a7.888,7.888,0,0,1,1.7.955,4.753,4.753,0,0,1,1.245,1.374,3.772,3.772,0,0,1,.485,1.973v.065A5.367,5.367,0,0,1,514.307,235.652Z" transform="translate(-501.206 -192.584)"/><path class="a" d="M573.3,221.58h3.947v17.08H573.3v-2.68a8.394,8.394,0,0,1-2.1,2.138,5.424,5.424,0,0,1-3.226.9,5.681,5.681,0,0,1-4.484-1.779,6.944,6.944,0,0,1-1.581-4.788V221.58h3.946v9.682a4.537,4.537,0,0,0,.946,3.082,3.37,3.37,0,0,0,2.679,1.081,3.632,3.632,0,0,0,2.758-1.113A4.341,4.341,0,0,0,573.3,231.2Z" transform="translate(-533.162 -192.907)"/><path class="a" d="M612.707,233.459v-2.847a8.849,8.849,0,0,1-2.34,2.265,6.11,6.11,0,0,1-3.469.938,7.671,7.671,0,0,1-2.937-.582,7.273,7.273,0,0,1-2.517-1.73,8.9,8.9,0,0,1-1.775-2.8,9.906,9.906,0,0,1-.678-3.785,10.1,10.1,0,0,1,.662-3.785,8.66,8.66,0,0,1,1.759-2.8,7.24,7.24,0,0,1,2.534-1.731,7.785,7.785,0,0,1,2.953-.582,6.254,6.254,0,0,1,3.485.906,9.529,9.529,0,0,1,2.324,2.1V211.7h3.947v21.76Zm-.339-10.8a5.547,5.547,0,0,0-1.08-1.73,4.636,4.636,0,0,0-1.579-1.116,4.688,4.688,0,0,0-1.871-.388,4.836,4.836,0,0,0-1.886.372,4.6,4.6,0,0,0-1.564,1.084,5.1,5.1,0,0,0-1.064,1.731,6.488,6.488,0,0,0-.386,2.313,6.389,6.389,0,0,0,.386,2.28,5.1,5.1,0,0,0,1.064,1.731,4.79,4.79,0,0,0,1.564,1.1,4.723,4.723,0,0,0,5.336-1.116,5.549,5.549,0,0,0,1.08-1.731,6.556,6.556,0,0,0,0-4.529Z" transform="translate(-552.683 -187.706)"/><path class="a" d="M643.079,233.121V217.3h3.947v15.825Zm4.094-19.922a2.141,2.141,0,1,1-2.141-2.141A2.141,2.141,0,0,1,647.173,213.2Z" transform="translate(-575.793 -187.368)"/><path class="a" d="M617.3,183.1V167.273h3.947V183.1Zm4.094-19.922a2.141,2.141,0,1,1-2.141-2.141A2.142,2.142,0,0,1,621.392,163.175Z" transform="translate(-562.221 -161.034)"/><g transform="translate(73.408 27.838)"><path class="a" d="M665.441,238.266a9.224,9.224,0,1,1,9.224-9.224A9.234,9.234,0,0,1,665.441,238.266Zm0-14.577a5.353,5.353,0,1,0,5.353,5.353A5.359,5.359,0,0,0,665.441,223.689Z" transform="translate(-656.217 -219.818)"/></g><g transform="translate(0.094 4.309)"><path class="a" d="M510.629,188.58a9.224,9.224,0,1,1,9.224-9.224A9.234,9.234,0,0,1,510.629,188.58Zm0-14.577a5.353,5.353,0,1,0,5.353,5.353A5.359,5.359,0,0,0,510.629,174Z" transform="translate(-501.405 -170.132)"/></g><path class="a" d="M539.2,228.057a2.128,2.128,0,0,0,.55,1.639,2.215,2.215,0,0,0,1.552.5,5.357,5.357,0,0,0,2.426-.583v3.2a6.781,6.781,0,0,1-1.585.647,7.514,7.514,0,0,1-1.941.226,7.2,7.2,0,0,1-1.981-.26,4.05,4.05,0,0,1-1.583-.842,3.747,3.747,0,0,1-1.027-1.541,6.829,6.829,0,0,1-.358-2.383v-9.014h-2.972V216.32h2.972v-2.807l3.947-1.883v4.69h5.188v3.332H539.2Z" transform="translate(-517.565 -187.669)"/></g><g transform="translate(501.532 202.278)"><path class="a" d="M592.991,261.506h-91.1v-3.789h91.1a3.6,3.6,0,0,0,3.6-3.6v-4.1a1.894,1.894,0,0,1,1.894-1.894h0a1.894,1.894,0,0,1,1.894,1.894v4.1A7.385,7.385,0,0,1,592.991,261.506Z" transform="translate(-501.894 -248.125)"/></g></g></svg>