<svg id="Capa_1" data-name="Capa 1" xmlns="http://www.w3.org/2000/svg" viewBox="0 0 183.9 28.71"><defs><style>.cls-1{fill:#fff;}</style></defs><path class="cls-1" d="M175.88,111.38H11v-3.5H175.88a1.75,1.75,0,0,1,1.76,1.75h0A1.75,1.75,0,0,1,175.88,111.38Z" transform="translate(-6.49 -83.2)"/><path class="cls-1" d="M184.32,109.63a2.29,2.29,0,1,1-2.29-2.29A2.3,2.3,0,0,1,184.32,109.63Z" transform="translate(-6.49 -83.2)"/><path class="cls-1" d="M29.52,103.21H26V87.74h3.57v3.48a6.82,6.82,0,0,1,2.09-2.81,5,5,0,0,1,3.4-1V91.2H34.8a5.7,5.7,0,0,0-2.14.38A4.45,4.45,0,0,0,31,92.72a5.12,5.12,0,0,0-1.08,1.92,8.41,8.41,0,0,0-.39,2.68Z" transform="translate(-6.49 -83.2)"/><path class="cls-1" d="M53.16,98.9a7.72,7.72,0,0,1-1.61,2.54A6.77,6.77,0,0,1,49.24,103a7.16,7.16,0,0,1-2.69.53,5.65,5.65,0,0,1-3.16-.83,8,8,0,0,1-2.08-1.9l0,2.4H37.76V83.49h3.58v6.83a7.66,7.66,0,0,1,2.1-2.07,5.51,5.51,0,0,1,3.13-.84,7,7,0,0,1,2.66.53,6.83,6.83,0,0,1,2.3,1.57,7.9,7.9,0,0,1,1.62,2.54,8.92,8.92,0,0,1,.61,3.42A9.13,9.13,0,0,1,53.16,98.9Zm-3.32-5.49a4.83,4.83,0,0,0-1-1.57,4.17,4.17,0,0,0-3.12-1.35,4.26,4.26,0,0,0-3.16,1.36,5.24,5.24,0,0,0-1,1.57,6,6,0,0,0,0,4.11,5.19,5.19,0,0,0,1,1.56,4.36,4.36,0,0,0,1.43,1,4.46,4.46,0,0,0,1.73.35,4.17,4.17,0,0,0,3.12-1.35,4.83,4.83,0,0,0,1-1.57,6.27,6.27,0,0,0,0-4.13Z" transform="translate(-6.49 -83.2)"/><path class="cls-1" d="M68.74,98.37a1.92,1.92,0,0,0,.5,1.49,2,2,0,0,0,1.4.45,4.73,4.73,0,0,0,2.2-.53v2.91a6.6,6.6,0,0,1-1.43.58,6.69,6.69,0,0,1-1.76.21,6.42,6.42,0,0,1-1.8-.24,3.71,3.71,0,0,1-1.43-.76,3.32,3.32,0,0,1-.93-1.4,6.13,6.13,0,0,1-.33-2.16V90.76H62.47v-3h2.69V85.19l3.58-1.7v4.25h4.7v3h-4.7Z" transform="translate(-6.49 -83.2)"/><path class="cls-1" d="M85.62,103.21v-1.9a6.73,6.73,0,0,1-2,1.58,6.38,6.38,0,0,1-3,.65,7.27,7.27,0,0,1-2.11-.31,5.29,5.29,0,0,1-1.75-.91,4.68,4.68,0,0,1-1.2-1.5,4.5,4.5,0,0,1-.45-2.06V98.7a4.78,4.78,0,0,1,.47-2.2A4.34,4.34,0,0,1,76.87,95a6,6,0,0,1,2-.93,9.9,9.9,0,0,1,2.5-.3,13.56,13.56,0,0,1,2.39.17,16.31,16.31,0,0,1,1.89.47V94a3.09,3.09,0,0,0-1-2.46,4.2,4.2,0,0,0-2.83-.85,9.68,9.68,0,0,0-2.34.26,16.54,16.54,0,0,0-2.09.7l-1-2.84a17.21,17.21,0,0,1,2.63-.94,13.33,13.33,0,0,1,3.26-.35,6.87,6.87,0,0,1,5.13,1.72A6.63,6.63,0,0,1,89.14,94v9.17Zm.09-6.56a8.14,8.14,0,0,0-1.6-.44,10.09,10.09,0,0,0-2-.18,4.58,4.58,0,0,0-2.61.65,2.1,2.1,0,0,0-.93,1.84v.06a1.92,1.92,0,0,0,.86,1.7,3.73,3.73,0,0,0,2.13.59,5.29,5.29,0,0,0,1.62-.24,4,4,0,0,0,1.31-.66,2.9,2.9,0,0,0,.86-1,2.84,2.84,0,0,0,.31-1.34Z" transform="translate(-6.49 -83.2)"/><path class="cls-1" d="M95.91,103.21H92.34V87.74h3.57v3.48A6.82,6.82,0,0,1,98,88.41a5,5,0,0,1,3.39-1V91.2h-.2a5.7,5.7,0,0,0-2.14.38,4.45,4.45,0,0,0-1.67,1.14,5.12,5.12,0,0,0-1.08,1.92,8.41,8.41,0,0,0-.39,2.68Z" transform="translate(-6.49 -83.2)"/><path class="cls-1" d="M56.31,103.2V88.86h3.58V103.2Zm3.71-18a1.94,1.94,0,1,1-1.94-2A1.94,1.94,0,0,1,60,85.15Z" transform="translate(-6.49 -83.2)"/><path class="cls-1" d="M14.85,103.82a8.36,8.36,0,1,1,8.36-8.35A8.37,8.37,0,0,1,14.85,103.82Zm0-13.2a4.85,4.85,0,1,0,4.85,4.85A4.85,4.85,0,0,0,14.85,90.62Z" transform="translate(-6.49 -83.2)"/><path class="cls-1" d="M119,100.84a4.18,4.18,0,0,1-1.21,1.51,5.56,5.56,0,0,1-1.84.91,8.15,8.15,0,0,1-2.25.31,10.43,10.43,0,0,1-3.39-.59,11,11,0,0,1-3.18-1.73l1.58-2.4a10.41,10.41,0,0,0,2.57,1.42,7.23,7.23,0,0,0,2.51.48,3,3,0,0,0,1.77-.45,1.43,1.43,0,0,0,.63-1.22V99a1.12,1.12,0,0,0-.28-.76,2.74,2.74,0,0,0-.76-.57,6.54,6.54,0,0,0-1.12-.44l-1.3-.39c-.57-.18-1.14-.38-1.71-.59a6.14,6.14,0,0,1-1.56-.84,4.27,4.27,0,0,1-1.13-1.26,3.61,3.61,0,0,1-.44-1.86v-.06a4.51,4.51,0,0,1,.43-2,4.39,4.39,0,0,1,1.17-1.5,5.2,5.2,0,0,1,1.76-.93,6.87,6.87,0,0,1,2.15-.33,9.88,9.88,0,0,1,3,.47,11.07,11.07,0,0,1,2.73,1.29l-1.41,2.52a12.12,12.12,0,0,0-2.25-1.07,6.63,6.63,0,0,0-2.11-.39,2.52,2.52,0,0,0-1.6.44,1.34,1.34,0,0,0-.57,1.11V92a1,1,0,0,0,.29.72,3.07,3.07,0,0,0,.78.56,8.47,8.47,0,0,0,1.11.46c.42.15.86.29,1.3.43s1.14.38,1.71.62a7.11,7.11,0,0,1,1.53.86A4.22,4.22,0,0,1,119,96.86a3.31,3.31,0,0,1,.44,1.78v.06A4.76,4.76,0,0,1,119,100.84Z" transform="translate(-6.49 -83.2)"/><path class="cls-1" d="M143.53,87.8h3.57v15.47h-3.57v-2.42a7.57,7.57,0,0,1-1.9,1.93,4.88,4.88,0,0,1-2.93.82,5.14,5.14,0,0,1-4.06-1.62,6.3,6.3,0,0,1-1.43-4.33V87.8h3.57v8.77a4.1,4.1,0,0,0,.86,2.79,3,3,0,0,0,2.43,1,3.26,3.26,0,0,0,2.5-1,3.92,3.92,0,0,0,1-2.82Z" transform="translate(-6.49 -83.2)"/><path class="cls-1" d="M161.55,103.27v-2.58a8,8,0,0,1-2.12,2.06,5.61,5.61,0,0,1-3.15.85,7,7,0,0,1-2.66-.53,6.66,6.66,0,0,1-2.28-1.57A8.12,8.12,0,0,1,149.73,99a9,9,0,0,1-.61-3.43,9.13,9.13,0,0,1,.6-3.43,8,8,0,0,1,1.59-2.54,6.78,6.78,0,0,1,2.3-1.57,7.09,7.09,0,0,1,2.67-.52,5.65,5.65,0,0,1,3.16.82,8.6,8.6,0,0,1,2.11,1.9V83.56h3.57v19.71Zm-.31-9.79a5,5,0,0,0-1-1.56,4.1,4.1,0,0,0-1.43-1,4.14,4.14,0,0,0-1.69-.36,4.42,4.42,0,0,0-1.71.34,4.21,4.21,0,0,0-1.42,1,4.61,4.61,0,0,0-1,1.57,5.78,5.78,0,0,0-.35,2.1,5.6,5.6,0,0,0,.35,2.06,4.51,4.51,0,0,0,1,1.57,4.41,4.41,0,0,0,1.42,1,4.25,4.25,0,0,0,1.71.35,4.3,4.3,0,0,0,1.69-.35,4.23,4.23,0,0,0,1.43-1,5,5,0,0,0,1-1.57,5.89,5.89,0,0,0,0-4.11Z" transform="translate(-6.49 -83.2)"/><path class="cls-1" d="M168.13,103.27V88.94h3.57v14.33Zm3.71-18a1.94,1.94,0,1,1-1.94-1.94A1.94,1.94,0,0,1,171.84,85.22Z" transform="translate(-6.49 -83.2)"/><path class="cls-1" d="M182,103.76a8.36,8.36,0,1,1,8.36-8.36A8.37,8.37,0,0,1,182,103.76Zm0-13.21a4.85,4.85,0,1,0,4.85,4.85A4.86,4.86,0,0,0,182,90.55Z" transform="translate(-6.49 -83.2)"/><path class="cls-1" d="M126.76,98.41a2,2,0,0,0,.5,1.49,2,2,0,0,0,1.41.45,4.9,4.9,0,0,0,2.2-.52v2.9a6,6,0,0,1-1.44.58,6.64,6.64,0,0,1-1.76.21,6.4,6.4,0,0,1-1.79-.24,3.69,3.69,0,0,1-1.44-.76,3.44,3.44,0,0,1-.93-1.4,6.31,6.31,0,0,1-.32-2.16V90.8H120.5v-3h2.69V85.23l3.57-1.7v4.25h4.71v3h-4.71Z" transform="translate(-6.49 -83.2)"/></svg>