<svg xmlns="http://www.w3.org/2000/svg" xmlns:xlink="http://www.w3.org/1999/xlink" width="170" height="170.001" viewBox="0 0 170 170.001"><defs><style>.a{fill:none;}.b{clip-path:url(#a);}.c{fill:#7e25e7;}.d{fill:#6ff1db;}.e{fill:#f9e2a7;}.f{fill:#fff;}</style><clipPath id="a"><circle class="a" cx="83.57" cy="83.57" r="83.57" transform="translate(1137.625 762.103)"/></clipPath></defs><g transform="translate(-1136.195 -760.673)"><g class="b"><circle cx="83.57" cy="83.57" r="83.57" transform="translate(1137.625 762.103)"/><path class="c" d="M1216.051,888.271l-2.975,14.959a83.71,83.71,0,0,1-26.439-11.155c-17.848-11.546-27.335-28.326-27.458-48.51-.134-23.34,9.772-37.918,18.9-46.375l10.574,10.955c-7.351,6.779-14.32,17.82-14.216,35.324C1174.643,879.614,1215.641,888.185,1216.051,888.271Z"/><path class="c" d="M1258.412,899.969l13.282,32.519-18.777-.335-3.985-25.885Z"/><path class="c" d="M1245.33,878.127l-18.268,8.018-18.277-8.018,2.67-10.974h31.206Z"/><path class="d" d="M1258.8,933.559h-63.479l13.148-54.107.315-1.325,18.277,8.018,18.268-8.018.324,1.335Z"/><path class="d" d="M1177.659,891.925l10.353-23.6,22.851,11.379s6.9,6.809,3.731,19.68S1177.659,891.925,1177.659,891.925Z"/><path class="d" d="M1243.166,879.458s8.581-1.99,13.306,6.84,10.695,20.146,10.695,20.146l-20.644,7.462Z"/><line class="e" x1="9.935" y1="5.644" transform="translate(1205.496 797.257)"/><rect class="c" width="0.953" height="11.426" transform="translate(1205.26 797.671) rotate(-60.398)"/><path class="e" d="M1218.358,801.957a1.981,1.981,0,0,1-2.87.973l-.057-.029a1.827,1.827,0,0,1,.925,1.592,1.8,1.8,0,0,1-.267.944,1.826,1.826,0,0,1-2.317.715l-10.23-4.6a49.7,49.7,0,0,0-9.792,4.663c-4.481,2.888-5.835,1.916-5.835,1.916l-2.269,1.106a.875.875,0,0,1-1.249-.9l.209-1.574a.875.875,0,0,0-.934-.982l-1.945.153a.864.864,0,0,1-.925-1.02l.382-2.126a.87.87,0,0,0-.954-1.021l-1.554.172a.869.869,0,0,1-.963-.944l.2-2.088a3.842,3.842,0,0,1,1.574-2.746c3.041-2.193,10.23-7.246,14.025-8.838,4.9-2.05,9.238-1.773,10.773-1.115,1.173.5,8.953,6.245,12.586,8.952a2.907,2.907,0,0,1,.915,3.528l-.305.667-.038.067a.189.189,0,0,0,.057.038A2,2,0,0,1,1218.358,801.957Z"/><path class="c" d="M1185.266,809.8a1.355,1.355,0,0,1-1.342-1.521l.209-1.576a.4.4,0,0,0-.428-.444l-1.941.152a1.341,1.341,0,0,1-1.43-1.583l.38-2.123a.392.392,0,0,0-.43-.462l-1.556.172a1.329,1.329,0,0,1-1.081-.365,1.354,1.354,0,0,1-.409-1.094l.2-2.093a4.32,4.32,0,0,1,1.769-3.086c2.959-2.134,10.257-7.271,14.12-8.892,5.068-2.12,9.525-1.808,11.146-1.114,1.195.506,8.458,5.862,12.682,9.009a3.371,3.371,0,0,1,1.065,4.106l-.173.379a2.466,2.466,0,0,1,.752,2.874,2.5,2.5,0,0,1-2.113,1.549,2.3,2.3,0,0,1-3.11,2.9l-10.059-4.527a49.332,49.332,0,0,0-9.509,4.55c-3.708,2.391-5.436,2.273-6.088,2.044l-2.066,1.006A1.33,1.33,0,0,1,1185.266,809.8Zm-1.534-4.495a1.357,1.357,0,0,1,1,.434,1.328,1.328,0,0,1,.347,1.093l-.208,1.569a.389.389,0,0,0,.166.371.384.384,0,0,0,.4.035l2.526-1.231.232.166h0c.006,0,1.309.643,5.3-1.93a50.654,50.654,0,0,1,9.9-4.714l.177-.059,10.4,4.681a1.343,1.343,0,0,0,1.715-.529,1.319,1.319,0,0,0,.2-.7,1.349,1.349,0,0,0-.682-1.176l.444-.844.089.046a1.528,1.528,0,0,0,2.185-.738l0-.006a1.531,1.531,0,0,0-.656-1.9l-.159-.118-.253-.258.18-.312.323-.7a2.421,2.421,0,0,0-.767-2.948c-7.022-5.234-11.69-8.559-12.485-8.9-1.25-.535-5.431-.964-10.4,1.117-3.771,1.582-11,6.671-13.931,8.785a3.364,3.364,0,0,0-1.377,2.405l-.2,2.088a.4.4,0,0,0,.121.32.379.379,0,0,0,.309.105l1.56-.173a1.346,1.346,0,0,1,1.475,1.581l-.381,2.124a.384.384,0,0,0,.092.334.4.4,0,0,0,.323.127l1.948-.153Z"/><path class="e" d="M1217.443,799.421c-2.918-1.668-8.991-5.129-9.935-5.663"/><path class="c" d="M1217.206,799.835c-2.917-1.668-8.989-5.129-9.933-5.663l.47-.829c.944.534,7.019,3.995,9.936,5.664Z"/><path class="e" d="M1204.614,850.855c1.013,5.907-4.217,10.7-8.509,10.7s-7.64-4.788-8.653-10.7.693-10.7,4.986-10.7S1203.6,844.949,1204.614,850.855Z"/><path class="c" d="M1201.234,851.053c-.912-3.084-6.784-6.506-8.7-6.076-1.734.4-1.377,3.363-1.373,3.393l-.946.12c-.02-.157-.461-3.855,2.107-4.442,2.356-.538,8.733,3.035,9.829,6.734Z"/><path class="e" d="M1245.59,850.855c-1.013,5.907,4.216,10.7,8.509,10.7s7.64-4.788,8.652-10.7-.693-10.7-4.985-10.7S1246.6,844.949,1245.59,850.855Z"/><path class="c" d="M1248.969,851.053l-.914-.271c1.1-3.7,7.474-7.277,9.828-6.734,2.568.587,2.128,4.285,2.108,4.442l-.946-.119c0-.03.353-3-1.374-3.394C1255.761,844.543,1249.883,847.969,1248.969,851.053Z"/><path class="c" d="M1254.026,840.319c0,15.134-12.736,37.106-28.447,37.106s-28.447-21.972-28.447-37.106,12.736-27.4,28.447-27.4S1254.026,825.185,1254.026,840.319Z"/><path class="e" d="M1245.446,837.942c0,6.535-8.9,23-19.867,23s-19.867-16.465-19.867-23,8.9-9.381,19.867-9.381S1245.446,831.407,1245.446,837.942Z"/><ellipse class="e" cx="15.172" cy="13.555" rx="15.172" ry="13.555" transform="translate(1210.407 851.353)"/><path class="f" d="M1220.009,838.757s-1.446-2.474-5.55-2.474-4.524,4.183-4.15,5.937,1.865,4.273,6.715,3.374c0,0,2.378-.724,2.985-2.589A8.991,8.991,0,0,0,1220.009,838.757Z"/><path class="c" d="M1215.1,846.262c-3.944,0-4.986-2.664-5.258-3.942a6.4,6.4,0,0,1,1.058-4.954,4.338,4.338,0,0,1,3.559-1.56c4.327,0,5.9,2.6,5.961,2.71l-.822.484c-.055-.092-1.385-2.24-5.139-2.24a3.43,3.43,0,0,0-2.818,1.206,5.422,5.422,0,0,0-.866,4.155c.317,1.491,1.535,3.862,6.162,3l.173.938A11.091,11.091,0,0,1,1215.1,846.262Z"/><ellipse class="c" cx="2.944" cy="3.014" rx="2.944" ry="3.014" transform="matrix(0.975, -0.224, 0.224, 0.975, 1212.124, 839.344)"/><path class="f" d="M1231.649,837.892s1.89-2.154,5.919-1.374,3.646,4.967,2.946,6.618-2.643,3.841-7.234,2.036c0,0-2.2-1.163-2.438-3.109A8.984,8.984,0,0,1,1231.649,837.892Z"/><path class="c" d="M1236.437,846.334a9.151,9.151,0,0,1-3.331-.719l.348-.887c4.379,1.722,6.028-.375,6.621-1.778a5.419,5.419,0,0,0-.06-4.244,3.429,3.429,0,0,0-2.537-1.72c-3.688-.713-5.4,1.142-5.472,1.222l-.715-.63c.084-.1,2.122-2.349,6.367-1.528a4.338,4.338,0,0,1,3.2,2.208,6.389,6.389,0,0,1,.095,5.064A4.714,4.714,0,0,1,1236.437,846.334Z"/><ellipse class="c" cx="3.014" cy="2.944" rx="3.014" ry="2.944" transform="matrix(0.405, -0.914, 0.914, 0.405, 1231.453, 843.095)"/><path class="c" d="M1223.482,851.877c-.182-1.489-2.043-1.629-2.122-1.634l.058-.951c.943.056,2.788.645,3.01,2.469Z"/><path class="c" d="M1227.676,851.877l-.946-.116c.223-1.824,2.066-2.413,3.009-2.469l.059.951C1229.719,850.248,1227.859,850.388,1227.676,851.877Z"/><path class="c" d="M1231.334,863.4h-11.065a4.563,4.563,0,0,1-3.268-1.389l-2.1-2.177.687-.661,2.1,2.176a3.605,3.605,0,0,0,2.582,1.1h11.065a3.606,3.606,0,0,0,2.583-1.1l2.1-2.176.687.661-2.1,2.176A4.562,4.562,0,0,1,1231.334,863.4Z"/><path class="d" d="M1227.063,886.145s-7.094,12.032-7.094,12.4c0,.3-8.361-13.8-11.5-19.1-.734-1.23-1.182-1.983-1.182-1.983l1.5.658Z"/><path class="c" d="M1219.981,899.034c-.457,0-1.295-1.385-11.921-19.339l-1.944-3.262,21.63,9.491-.273.463c-2.664,4.519-6.675,11.408-7.027,12.236v.29l-.353.1A.439.439,0,0,1,1219.981,899.034Zm-11.521-20.529.42.7c5.72,9.666,9.752,16.4,11.023,18.409.639-1.22,2.279-4.126,6.476-11.252Z"/><path class="d" d="M1246.837,877.469s-.448.763-1.182,1.992c-3.147,5.311-11.508,19.393-11.508,19.088,0-.372-7.084-12.4-7.084-12.4l18.267-8.018Z"/><path class="c" d="M1234.132,899.034a.433.433,0,0,1-.11-.02l-.351-.1v-.293c-.349-.823-4.356-7.716-7.018-12.237l-.273-.463,21.612-9.479-.744,1.266s-.447.763-1.183,1.995C1235.428,897.658,1234.584,899.034,1234.132,899.034Zm-6.386-12.669c4.193,7.127,5.829,10.033,6.468,11.252,1.273-2.011,5.307-8.739,11.031-18.4.156-.263.3-.5.43-.721l-.154.066Z"/><rect class="c" width="0.954" height="11.81" transform="matrix(0.474, -0.881, 0.881, 0.474, 1205.807, 798.301)"/></g><path class="c" d="M1221.2,930.674a85,85,0,1,1,85-85A85.1,85.1,0,0,1,1221.2,930.674Zm0-167.14a82.14,82.14,0,1,0,82.139,82.14A82.233,82.233,0,0,0,1221.2,763.534Z"/></g></svg>