<svg xmlns="http://www.w3.org/2000/svg" xmlns:xlink="http://www.w3.org/1999/xlink" width="170" height="170" viewBox="0 0 170 170"><defs><style>.a{fill:none;}.b{clip-path:url(#a);}.c{fill:#6ff1db;}.d{fill:#fff;}.e{fill:#7e25e7;}.f{clip-path:url(#b);}.g{fill:#f9e2a7;}</style><clipPath id="a"><circle class="a" cx="83.57" cy="83.57" r="83.57" transform="translate(1390.757 340.104)"/></clipPath><clipPath id="b"><path class="a" d="M1476.918,404.715a3.358,3.358,0,0,1,5.6-1.505c2.9,2.874,7.561,6.824,10.528,5.976,4.571-1.306,3.731-10.073,3.731-10.073s2.425,16.416,11.286,21.825,23.317,13.244,26.209,15.2-.84,10.167-3.824,12.592-11.566,5.6-16.509,4.476-32.178-9.793-40.946-16.975-7.834-9.793-2.238-14.55,5.036-9.886,5.783-15.109A14.516,14.516,0,0,1,1476.918,404.715Z"/></clipPath></defs><g transform="translate(-1389.326 -338.674)"><g class="b"><circle cx="83.57" cy="83.57" r="83.57" transform="translate(1390.757 340.104)"/><path class="c" d="M1496.96,410.678s2.425-18.467-7.089-26.488-24.436-11.192-32.458-7.275-23.877,18.84-21.079,35.069,13.618,22.945.747,38.987-36.749,38.054-36.749,38.054,25.929,23.5,47.754,29.1,54.47-9.7,54.47-9.7-17.721-24.81-23.877-40.292-.187-36.189-.187-36.189,10.633-5.037,14.55-11.192S1496.96,410.678,1496.96,410.678Z"/><path class="c" d="M1474.326,387.61s15.3,13.8,26.24.746-11.068-28.6-11.068-28.6,4.85,11.69-1.617,16.54-11.192,1.865-11.192,1.865"/><path class="d" d="M1467.937,411.2c-7.642.6-12.066-2.547-12.4-4.893s3.552-5.966,8.848-5.3a14.128,14.128,0,0,1,7.977,3.419s.385,5.345-1.928,6.1A8.771,8.771,0,0,1,1467.937,411.2Z"/><path class="e" d="M1466.086,411.754c-6.7,0-10.678-2.974-11.022-5.377a4.156,4.156,0,0,1,1.428-3.326,9.573,9.573,0,0,1,7.952-2.51,14.487,14.487,0,0,1,8.257,3.559l-.681.666a13.833,13.833,0,0,0-7.7-3.279,8.583,8.583,0,0,0-7.153,2.233,3.3,3.3,0,0,0-1.164,2.522c.313,2.192,4.726,5.05,11.891,4.486l.074.95Q1467,411.755,1466.086,411.754Z"/><g class="f"><path class="g" d="M1476.918,404.715a3.358,3.358,0,0,1,5.6-1.505c2.9,2.874,7.561,6.824,10.528,5.976,4.571-1.306,3.731-10.073,3.731-10.073s2.425,16.416,11.286,21.825,23.317,13.244,26.209,15.2-.84,10.167-3.824,12.592-11.566,5.6-16.509,4.476-32.178-9.793-40.946-16.975-7.834-9.793-2.238-14.55,5.036-9.886,5.783-15.109A14.516,14.516,0,0,1,1476.918,404.715Z"/><path class="e" d="M1517.227,450.237c-3.121,0-12.429-3.088-25.206-8.339-10.4-4.276-15.047-8.356-17.03-10.1a7.342,7.342,0,0,0-.973-.789l.143-.94c.352.039.676.324,1.459,1.013,1.947,1.711,6.507,5.717,16.764,9.933,15.378,6.319,22.988,8.406,24.966,8.266,2.565-.189,10.1-.744,18.914-9.47l.671.677c-9.067,8.974-16.863,9.549-19.424,9.737C1517.423,450.234,1517.328,450.237,1517.227,450.237Z"/><path class="e" d="M1490.712,421.679l-.936-.176c.487-2.6-3.171-4.6-3.208-4.622l.451-.84C1487.195,416.135,1491.33,418.389,1490.712,421.679Z"/></g><ellipse class="e" cx="4.344" cy="4.447" rx="4.344" ry="4.447" transform="translate(1461.083 401.165)"/><path class="e" d="M1489.315,394.449c-8.026,0-15-6.21-15.308-6.485l.639-.708c.074.068,7.594,6.769,15.663,6.2a13.981,13.981,0,0,0,9.892-5.412l.73.613a14.9,14.9,0,0,1-10.56,5.751C1490.018,394.438,1489.665,394.449,1489.315,394.449Z"/></g><path class="e" d="M1474.326,508.674a85,85,0,1,1,85-85A85.1,85.1,0,0,1,1474.326,508.674Zm0-167.139a82.139,82.139,0,1,0,82.14,82.139A82.232,82.232,0,0,0,1474.326,341.535Z"/></g></svg>