<svg xmlns="http://www.w3.org/2000/svg" xmlns:xlink="http://www.w3.org/1999/xlink" width="170" height="170.001" viewBox="0 0 170 170.001"><defs><style>.a{fill:none;}.b{clip-path:url(#a);}.c{fill:#6ff1db;}.d{fill:#fff;}.e{fill:#f9e2a7;}.f{fill:#f193eb;}.g{fill:#7e25e7;}</style><clipPath id="a"><circle class="a" cx="83.57" cy="83.57" r="83.57" transform="translate(1165.973 344.669)"/></clipPath></defs><g transform="translate(-1164.543 -343.239)"><g class="b"><circle cx="83.57" cy="83.57" r="83.57" transform="translate(1165.973 344.669)"/><path class="c" d="M1322.731,482.77s-15.855,26.487-41.789,33.952-63.794-6.9-63.794-6.9,6.589-35.429,7.542-48.053c4.252,3.585,16.58,13.129,26.1,12.109a96.27,96.27,0,0,0,24.332-30.4c3.213,4.872,7.227,10.221,11.422,13.93C1296.245,465.981,1322.731,482.77,1322.731,482.77Z"/><path class="d" d="M1272.867,439.933c.686,1.125,1.439,2.317,2.25,3.537a96.27,96.27,0,0,1-24.332,30.4c-9.515,1.02-21.843-8.524-26.1-12.109.057-.81.1-1.525.105-2.126a114.512,114.512,0,0,0-1.1-15.827,7.348,7.348,0,0,0-1.964-4.119c-7.5-7.856-13.6-16.885-13.872-23.349a9.749,9.749,0,0,1,.019-1.182c1.926-2.527,5.873-6.445,11.9-6.693,8.953-.382,8.085,7.827,14.053,12.185s10.574,2.612,10.574,2.612h3.976s4.6,1.735,10.573-2.612,5.092-12.567,14.054-12.185a15.435,15.435,0,0,1,10.745,5.32c.143,5.968-4.5,14.435-10.669,22.272A3.39,3.39,0,0,0,1272.867,439.933Z"/><path class="e" d="M1283.755,413.771v.019a15.435,15.435,0,0,0-10.745-5.32c-8.962-.382-8.085,7.827-14.054,12.185s-10.573,2.612-10.573,2.612h-3.976s-4.6,1.735-10.574-2.612-5.1-12.567-14.053-12.185c-6.026.248-9.973,4.166-11.9,6.693.524-8.39,10.04-18.583,16.542-24.618a37.616,37.616,0,0,1,8.323-5.835,23.828,23.828,0,0,1,6.407-2.193s9.049-1.687,17.629,1.373a37.665,37.665,0,0,1,8.7,5.263C1272.714,395,1283.545,405.171,1283.755,413.771Z"/><path class="e" d="M1254.506,385.582c4.545-8.652,13.133-17.125,18.541-21.96a3.01,3.01,0,0,1,5.017,2.181c.219,9.931.4,28.84-1.18,35.871C1266.575,393.88,1254.506,385.582,1254.506,385.582Z"/><path class="f" d="M1273.532,395.723a31.873,31.873,0,0,0-14.164-10.728c3.564-5.5,9.265-11.345,13.361-15.246a.672.672,0,0,1,1.133.482C1274.013,380.254,1273.9,390.064,1273.532,395.723Z"/><path class="e" d="M1236.474,386.888c-4.545-8.652-13.133-17.125-18.541-21.96a3.01,3.01,0,0,0-5.016,2.181c-.219,9.93-.4,28.84,1.179,35.871C1224.405,395.185,1236.474,386.888,1236.474,386.888Z"/><path class="f" d="M1217.449,397.029a31.867,31.867,0,0,1,14.164-10.728c-3.565-5.5-9.266-11.345-13.362-15.247a.671.671,0,0,0-1.132.482C1216.967,381.56,1217.076,391.37,1217.449,397.029Z"/><path class="g" d="M1245.812,430.309h0a6.688,6.688,0,0,1-6.516-5.18l-.412-1.777a3.622,3.622,0,0,1,3.529-4.44h6.8a3.622,3.622,0,0,1,3.528,4.44l-.411,1.777A6.69,6.69,0,0,1,1245.812,430.309Z"/><path class="f" d="M1253.806,446.569a7.694,7.694,0,1,1-15.351,0,55.506,55.506,0,0,1,.763-10.879,11.62,11.62,0,0,0,4.434.791l3.842-.066a11.738,11.738,0,0,0,5.4-1.43A53.155,53.155,0,0,1,1253.806,446.569Z"/><rect class="g" width="0.953" height="12.436" transform="translate(1245.651 436.229)"/><path class="d" d="M1238.155,408.036a5.952,5.952,0,0,0-4.052-4.965c-3.766-1.341-6.192.228-6.962,1.655s-1.085,3.053-.314,3.852,8.846,2.283,8.846,2.283"/><path class="g" d="M1235.586,411.33c-1.93-.354-8.289-1.577-9.1-2.421-1.014-1.051-.542-2.967.239-4.41.994-1.843,3.777-3.216,7.541-1.877a6.475,6.475,0,0,1,4.369,5.414h-.477l-.476.014a5.521,5.521,0,0,0-3.736-4.53c-3.718-1.324-5.8.358-6.382,1.432-.768,1.419-.924,2.742-.391,3.3.473.442,4.739,1.438,8.589,2.145Z"/><ellipse class="g" cx="2.944" cy="3.014" rx="2.944" ry="3.014" transform="translate(1229.561 404.317)"/><path class="d" d="M1253.908,408.036a5.952,5.952,0,0,1,4.052-4.965c3.766-1.341,6.192.228,6.962,1.655s1.084,3.053.314,3.852-8.846,2.283-8.846,2.283"/><path class="g" d="M1256.476,411.33l-.173-.938c3.85-.707,8.116-1.7,8.591-2.146.531-.551.375-1.875-.392-3.294-.58-1.075-2.665-2.757-6.382-1.432a5.521,5.521,0,0,0-3.736,4.53l-.953-.014a6.475,6.475,0,0,1,4.368-5.414c3.762-1.338,6.547.034,7.542,1.877.779,1.444,1.251,3.359.238,4.41C1264.766,409.753,1258.405,410.976,1256.476,411.33Z"/><ellipse class="g" cx="2.944" cy="3.014" rx="2.944" ry="3.014" transform="translate(1256.614 404.317)"/><path class="g" d="M1244.065,436.956a12.2,12.2,0,0,1-9.16-4.132c-5.453-6.177-8.717-9.856-8.954-10.093l.674-.674c.342.343,5.783,6.5,8.995,10.136a11.226,11.226,0,0,0,8.643,3.807l3.843-.066a11.32,11.32,0,0,0,8.1-3.642l10.768-11.713.7.645-10.768,11.714a12.282,12.282,0,0,1-8.786,3.949l-3.843.067Z"/><path class="c" d="M1223.583,460.48s4.2,17.628,11.192,22.2c6.343-2.8,14.923-8.861,14.923-8.861a102.521,102.521,0,0,1-13.99-6.062c-2.18-1.145-9.98-6.576-10.866-10.726C1223.256,458.1,1223.583,460.48,1223.583,460.48Z"/><path class="g" d="M1234.732,483.218l-.217-.141c-7.073-4.621-11.223-21.76-11.4-22.487l-.008-.045c-.015-.109-.346-2.687,1.464-3.911l.585-.4.148.691c.8,3.764,8.016,9.035,10.621,10.4a102.92,102.92,0,0,0,13.918,6.031l.9.3-.773.546c-.086.061-8.693,6.123-15.005,8.908ZM1224.053,460.4c.185.761,4.261,17.19,10.77,21.739a106.117,106.117,0,0,0,13.832-8.175,107.04,107.04,0,0,1-13.169-5.783c-1.967-1.032-9.253-6.016-10.877-10.272A3.894,3.894,0,0,0,1224.053,460.4Z"/><path class="c" d="M1249.916,473.693s8.083-4.912,15.732-15.638,9.14-14.131,9.14-14.131l-1.306-3.5s3.591.979,4.617,3.87-6.047,27.22-10.026,34.059C1256.383,477.983,1249.916,473.693,1249.916,473.693Z"/><path class="g" d="M1268.342,478.842l-.284-.009c-11.691-.373-18.137-4.565-18.406-4.743l-.624-.414.64-.39c.08-.049,8.1-5,15.591-15.508,6.6-9.255,8.612-13.068,9.011-13.877l-1.559-4.179.9.245c.157.043,3.844,1.08,4.941,4.171S1272.5,471.7,1268.485,478.6Zm-17.523-5.172c1.871,1.031,7.789,3.852,16.983,4.2,4.155-7.412,10.766-30.826,9.847-33.414a6.087,6.087,0,0,0-3.353-3.213l1.006,2.7-.077.177c-.062.141-1.6,3.572-9.189,14.215A63.809,63.809,0,0,1,1250.819,473.67Z"/><path class="c" d="M1246.62,475.869s1.493,14.55,3.265,18.1c2.612-.653,7.182-2.145,7.182-2.145"/><path class="g" d="M1249.63,494.519l-.171-.342c-1.792-3.581-3.252-17.662-3.312-18.259l.948-.1c.015.14,1.412,13.631,3.058,17.582,2.609-.682,6.722-2.024,6.766-2.038l.3.906c-.046.016-4.617,1.506-7.214,2.155Z"/></g><path class="g" d="M1249.543,513.24a85,85,0,1,1,85-85A85.1,85.1,0,0,1,1249.543,513.24Zm0-167.141a82.14,82.14,0,1,0,82.14,82.14A82.233,82.233,0,0,0,1249.543,346.1Z"/></g></svg>