<?xml version="1.0" encoding="UTF-8"?>
<svg width="2821px" height="1400px" viewBox="0 0 2821 1400" version="1.1" xmlns="http://www.w3.org/2000/svg" xmlns:xlink="http://www.w3.org/1999/xlink">
    <!-- Generator: Sketch 60 (88103) - https://sketch.com -->
    <title>Logo - Color</title>
    <desc>Created with Sketch.</desc>
    <g id="Logo---Color" stroke="none" stroke-width="1" fill="none" fill-rule="evenodd">
        <g id="Group" transform="translate(466.000000, 415.000000)" fill-rule="nonzero">
            <path d="M489.470584,144.062743 C479.310779,137.50885 468.27176,132.666795 457.867729,132.079879 C446.975246,131.444054 436.082763,134.623181 427.388314,140.932525 C409.999417,153.600124 397.446196,182.603546 399.155779,203.145599 C401.109588,226.475501 417.52158,247.849018 439.599618,257.875496 C462.849941,268.43998 495.918153,268.048703 515.749311,251.321603 C530.500566,238.898552 536.215456,217.965222 533.235898,199.575194 C529.425971,175.316009 509.790194,157.121619 489.470584,144.062743 Z" id="Path" fill="#FFC600"></path>
            <path d="M416,9.85785599 L416,49.9724977 C416,54.950227 412.293118,59.1959372 407.318091,59.7815524 L376.053465,63.53925 C371.078438,64.1248652 367.371556,68.3217742 367.371556,73.3483047 C367.371556,73.3483047 367.371556,362.251807 367.371556,362.34941 C367.371556,420.374116 353.714621,482.156521 307.427365,521.099932 C254.848165,565.362682 175.491617,572.829275 109.743229,563.410631 C55.7495603,555.700031 0,527.346494 0,465.56409 C0,419.398091 24.3386095,386.701242 72.9670536,386.701242 C104.378004,386.701242 130.472506,402.122442 144.22699,430.573581 C153.786845,450.386896 154.518466,472.786677 163.639348,492.404787 C168.907023,503.67788 182.515183,508.216398 189.246102,495.088857 C193.928479,485.914218 192.465236,473.128286 192.123813,463.172828 C189.051002,382.992346 190.416696,302.567857 190.416696,222.338574 C190.416696,181.199105 190.416696,140.108438 190.416696,98.9689701 C190.416696,90.3311458 190.416696,81.7421227 190.416696,73.1042984 C190.416696,68.2241717 186.856138,64.076064 182.027436,63.3440449 L160.225114,60.0255588 C155.396412,59.2935398 151.835854,55.145432 151.835854,50.2653053 L151.835854,9.85785599 C151.835854,4.39211406 156.274358,0 161.688357,0 L406.147497,0 C411.561496,0 416,4.44091532 416,9.85785599 Z" id="Path" fill="#154734"></path>
            <path d="M1153.40573,224.987786 C1153.55211,258.838679 1122.81233,275.495468 1090.21841,275.642008 C1072.01851,275.739702 1056.30707,266.849569 1044.69426,254.247072 C1032.10559,240.61879 1028.73886,221.568503 1016.34536,208.086762 C1000.7803,191.185739 976.09089,212.82491 967.112924,225.818183 C957.793404,239.348771 957.403058,255.614784 971.748287,266.214559 C983.458678,274.860458 998.974946,278.865903 1013.02742,282.67596 C1051.18377,293.080348 1091.68221,300.749309 1124.22734,323.414265 C1157.50436,346.616537 1171.8008,382.421306 1172,420.521878 C1172.5327,539.366357 1066.11452,569.553734 978.042622,569.993356 C924.321203,570.23759 820.34269,564.131729 820,487.393268 C819.854757,452.711978 847.910902,423.696926 884.89622,423.550385 C909.000108,423.452692 929.883639,433.124376 943.155415,452.076968 C948.961818,460.380939 953.841147,469.368766 956.573572,478.991603 C961.355315,495.746086 964.770845,512.060947 985.800756,515.968698 C994.729929,517.629492 1004.00066,516.40832 1012.73466,514.014822 C1027.22626,510.058224 1041.27873,502.340416 1048.59773,489.982153 C1075.43404,444.847629 995.949762,429.851634 966.527404,421.205735 C924.369996,408.798625 879.382578,392.190683 856.644902,354.090111 C845.471237,335.332906 841.177427,313.791428 841.07984,292.494185 C840.543114,175.3105 946.961292,148.395865 1035.03319,148.00509 C1102.85587,147.614315 1153.16176,169.693108 1153.40573,224.987786 Z" id="Path" fill="#154734"></path>
            <path d="M1681.92118,149.409523 C1562.24638,149.409523 1474.93985,231.681981 1474.93985,359.265324 C1474.93985,384.410912 1478.30342,407.701097 1484.59183,429.038228 C1481.47199,432.407248 1478.30342,435.776269 1475.13484,439.047636 C1460.9006,453.793205 1445.05771,467.464592 1426.14373,475.716251 C1416.78424,479.768841 1405.57234,482.503119 1395.53038,479.817668 C1371.35169,472.298404 1371.35169,436.996928 1371.35169,411.607208 L1371.35169,243.693271 C1371.35169,235.392786 1378.07882,228.654745 1386.36588,228.654745 L1451.19988,228.654745 C1462.16804,228.654745 1471.04006,219.768343 1471.04006,208.782406 L1471.04006,162.934431 C1471.04006,154.633946 1464.31292,147.895905 1456.02587,147.895905 L1386.36588,147.895905 C1378.07882,147.895905 1371.35169,141.157864 1371.35169,132.857378 L1371.35169,15.0393121 C1371.35169,5.56699344 1362.77215,-1.41517957 1353.75389,0.244917511 C1352.77894,0.440223049 1351.80399,0.586702203 1350.82904,0.586702203 L1239.5388,1.2214452 C1224.96334,1.2214452 1219.45488,6.88530582 1218.86992,14.4533954 C1218.82117,14.8440065 1218.82117,24.9510681 1218.82117,25.3905056 L1218.82117,132.857378 C1218.82117,141.157864 1212.09403,147.895905 1203.80698,147.895905 L1186.01419,147.895905 C1177.72714,147.895905 1171,154.633946 1171,162.934431 L1171,213.616218 C1171,221.916704 1177.72714,228.654745 1186.01419,228.654745 L1203.80698,228.654745 C1212.09403,228.654745 1218.82117,235.392786 1218.82117,243.693271 L1218.82117,416.636326 C1218.82117,507.306922 1236.41897,565.263841 1339.51966,565.263841 C1348.29418,565.263841 1357.11746,564.629098 1365.98948,563.457264 C1365.98948,563.457264 1365.98948,563.847876 1365.98948,563.847876 C1400.60011,558.37932 1435.21074,547.100426 1463.33797,525.616816 C1480.98452,512.140734 1494.92627,495.0515 1504.87073,475.765078 C1540.21257,535.284441 1604.26662,570 1682.01867,570 C1801.69346,570 1889,487.727542 1889,360.144199 C1888.90251,231.730807 1801.59597,149.409523 1681.92118,149.409523 Z M1716.23932,467.269287 C1715.89809,467.366939 1715.55686,467.464592 1715.21563,467.611071 C1679.14258,478.987619 1645.11691,460.824204 1625.22799,432.797859 C1601.19553,398.912348 1582.3303,347.742297 1593.00597,306.044565 C1599.24564,281.533719 1616.74594,261.124291 1641.99708,252.823805 C1707.80603,231.144891 1744.22031,298.037037 1760.50193,346.131026 C1780.19587,404.380903 1760.55068,452.621371 1716.23932,467.269287 Z" id="Shape" fill="#154734"></path>
            <path d="M809.175104,260.727249 C807.808327,251.837332 806.29511,251.006955 804.684266,242.165884 C803.219863,234.008653 801.560205,225.704885 798.973092,217.840728 L798.973092,217.840728 L788.429385,182.036834 C785.939899,173.68422 776.90941,168.995033 768.513495,171.828084 L723.702743,186.823712 C711.304125,190.731368 699.491268,196.250931 690.021458,200.988963 C684.700791,203.675477 679.136057,206.899293 676.646571,212.223473 C674.352339,217.108043 675.08454,222.774143 675.963183,228.049479 C680.258767,254.670382 686.702143,272.938672 688.459427,299.85265 C690.363152,328.818148 688.117733,361.935529 667.420828,384.306857 C649.066968,404.187055 621.048045,415.275028 593.85895,413.858503 C554.466491,411.806983 519.955377,383.427635 501.747958,349.772951 C487.543242,323.445121 489.886288,304.102226 467.090404,302.881083 C449.175866,301.90417 431.603022,312.992142 416.080343,319.439774 C411.833572,321.198219 404.218673,325.83856 401.533933,329.550833 C392.893951,341.566874 402.314948,362.521677 406.317651,377.908071 C407.830869,383.8184 409.490526,389.679884 411.491878,395.492521 C432.091156,455.230806 474.168355,518.876747 534.648227,549.893763 C578.18983,572.265092 632.128699,576.02621 678.647923,560.884045 C759.238939,534.556215 805.611722,457.5754 814.105263,377.517305 C818.254407,338.636132 815.130346,299.461885 809.175104,260.727249 Z" id="Path" fill="#154734"></path>
            <path d="M670.125532,87.292257 C674.847568,90.4740094 681.857601,88.5160079 687.115127,88.4181079 C704.494168,88.0754576 725.329545,96.396964 729.32137,115.340629 C735.065703,142.65475 702.985064,156.01811 684.291641,166.689218 C666.523153,176.870826 648.608623,186.807684 630.596732,196.597691 C618.523896,203.108046 597.250392,221.17061 585.615683,206.240849 C583.035602,202.177995 581.964624,197.380892 581.185732,192.632738 C577.826757,173.003773 577.583353,152.836357 577.096545,132.962642 C576.366334,104.62057 579.287181,72.1666953 603.043405,53.2719808 C613.363733,45.0973245 627.821927,41.6218718 640.478932,45.733675 C656.397549,50.922379 661.509032,65.21579 665.890303,79.9497513 C666.620515,82.6909535 667.691492,85.6769058 670.125532,87.292257 Z" id="Path" fill="#FFC600"></path>
        </g>
    </g>
</svg>